<?xml version="1.0" encoding="utf-8"?>
<!-- Generator: Adobe Illustrator 16.0.0, SVG Export Plug-In . SVG Version: 6.00 Build 0)  -->
<!DOCTYPE svg PUBLIC "-//W3C//DTD SVG 1.1//EN" "http://www.w3.org/Graphics/SVG/1.1/DTD/svg11.dtd">
<svg version="1.1" xmlns="http://www.w3.org/2000/svg" xmlns:xlink="http://www.w3.org/1999/xlink" x="0px" y="0px"
	 width="411.311px" height="354.405px" viewBox="0 0 411.311 354.405" enable-background="new 0 0 411.311 354.405"
	 xml:space="preserve">
<g id="Layer_1">
	<g opacity="0.3">
		<path d="M407.438,275.764l0.032-0.07l-6.918-5.031l-23.245-8.449l1.063,0.77l-1.211-0.428l-53.344-15.331
			c-2.332-6.61-4.475-9.719-4.475-9.719s2.556-0.389,0.26-4.196c-2.89-4.785-9.058-16.983-13.301-21.072
			c0,0,1.977-0.158-0.491-5.384c-2.2-4.662-4.185-6.361-6.246-6.5c0.851-6.446,1.296-13.021,1.296-19.699
			c0-48.543-23.568-91.902-59.813-119.193c0.815-5.48,0.84-11.573-0.963-17.512c-0.257-0.846-0.354-1.676-0.352-2.481l3.644,12.375
			l2.605,1.724l10.85-16.39l-3.431-2.271l-5.698,8.608c-0.336,0.508-0.903,1.503-1.712,2.932c-0.13-1.045-0.387-2.038-0.696-3.02
			l-3.173-10.676c0.92-1.311,1.755-2.104,1.755-2.104s-0.88,0.497-1.906,1.594l-1.814-6.103l-2.604-1.725l-10.85,16.39l3.431,2.271
			l5.866-8.862c0.315-0.477,0.852-1.356,1.565-2.71c0.108,0.803,0.28,1.51,0.483,2.239l1.127,3.826
			c-0.341,1.452-0.482,3.146-0.25,5.134c0.483,4.13-0.466,8.967-2.854,13.174c-24.044-16.616-53.129-26.382-84.366-26.382
			c-21.313,0-41.577,4.48-59.915,12.533c-2.415-2.239-3.988-4.644-4.994-6.635l8.301-3.662c3.38-1.492,4.077-2.84,2.585-6.221
			l-4.182-9.479c-1.491-3.381-2.956-3.776-6.336-2.285l-3.811,1.682c-0.542-1.665-1.422-3.42-2.916-5.472
			c0,0,1.397,2.622,2.275,5.754l-8.792,3.879c-3.381,1.491-4.077,2.839-2.585,6.219l4.182,9.48c1.491,3.38,2.956,3.775,6.336,2.283
			l2.518-1.111c0.407,2.623,0.982,5.385,1.794,8.175C70.358,54.379,56.125,64.83,44.071,77.391
			c-5.497-1.359-11.863-1.789-17.478,0.788c0,0-17.333-4.019-25.268,18.397c-3.748,10.584,1.434,19.667,3.44,22.465
			c0,0,0.386-6.132,2.245-8.637c0,0-0.924,7.672,5.64,16.177c-4.414,11.34-7.479,23.354-9,35.844c-0.438,0.7-0.892,1.406-1.37,2.104
			c-2.54,3.709-1.026,7.96-1.026,7.96s0.408,1.706,1.338,4.203c-0.034,1.317-0.053,2.638-0.053,3.963
			c0,7.356,0.542,14.586,1.57,21.657l-1.997,0.002l0.257,6.684l0.099,2.556l0.153,3.991l3.599,1.662l0.005,0.002
			c0.055,0.025,0.02,0.011-0.002,0.003c-0.012-0.004-0.021-0.006-0.002,0.004c0.225,0.123,0.453,0.248,0.721,0.375
			c0.078,0.058,0.169,0.113,0.252,0.17c1.183,4.619,2.584,9.149,4.187,13.584v7.821v1.064v8.241l0.025,0.025l0.049,8.758H11.43
			c0,2.672,0.114,5.917,0.217,8.894c0.352,10.079,0.562,16.124-7.151,24.432l-1.597,1.721l-0.126,2.361
			c-0.014,0.253-0.066,1.402-0.109,2.372l-0.048,1.044l-0.501,10.924l9.831-4.84c13.003-6.401,28.263-11.015,38.727-13.782
			c26.572,24.479,62.052,39.436,101.03,39.436c35.517,0,68.128-12.422,93.745-33.147c5.893,2.051,11.847,4.307,16.93,6.588
			l9.126,4.096v-3.484l4.454,1.999v-11.542v-0.83v-0.685v-0.636v-0.685v-3.285l-2.457-2.243c-1.027-0.937-2.344-1.991-3.61-3.003
			c-1.77-1.416-3.383-2.708-5.03-5.13c2.154-2.505,4.228-5.082,6.214-7.728c1.939,0.898,4.284,1.687,7.144,2.277
			c4.87,1.004,5.916-1.157,5.916-1.157s4.959,3.907,12.887,3.965c7.925,0.055,9.344-0.536,9.396-5.715c0,0,2.467,4.771,10.001,3.549
			c7.539-1.221,9.498-2.064,10.49-5.757c0.775-2.886,1.21-5.467,0.296-7.806l57.702,15.197l20.921,4.715l0.827-1.848l0.255,0.078
			l-0.246-0.099l0.777-1.737L407.438,275.764z M88.853,18.83l5.027,11.397l-8.478,3.74c-0.179-0.596-0.249-0.946-0.249-0.946
			c-1.053-5.314-0.73-8.799-1.078-12.083L88.853,18.83z M80.079,36.315l-5.028-11.396l8.313-3.667
			c0.018,0.238,0.033,0.475,0.037,0.709c0.026,1.82-0.157,6.64,0.472,12.681L80.079,36.315z M114.992,265.593l-0.237,4.585
			l-0.098,1.892l-0.049,0.958l-0.186-0.791c0.001-0.09,0.002-0.311,0.002-0.744v-4.228l-3.904-1.704l-1.514-0.661l-0.076-0.025
			l-1.367-0.575l-0.33-0.127l-1.417-0.509l-0.033-0.011l0.007-0.016c0.003,0,0.003,0,0-0.001h-0.005l-0.047-0.012l0.027,0.012
			l-0.005,0.01l-0.084-0.028l-0.003-0.013l0.065,0.019l-0.068-0.031c-0.025-0.099-0.038-0.196-0.038-0.286l-0.025-0.102
			l-0.047-3.035h0.024v-0.941v-3.192v-2.168c1.958-6.223,3.923-12.42,6.017-17.995l0.05-0.076c0.279-0.781,0.417-1.124,0.552-1.46
			c0.275-0.687,0.548-1.366,0.89-2.394c0.098-0.295,0.323-0.829,0.549-1.363c0.371-0.881,0.745-1.766,0.942-2.363h-0.001
			l1.292-3.485l0,0c0.162-0.403,0.289-0.681,0.418-0.963c0.411-0.897,0.834-1.82,1.15-2.77l0.001-0.004v0l0.022-0.067l-0.006-0.002
			c0.328-0.984-0.818-1.664,0.001-1.938l0.505-0.169l0.128-0.058l0.653-0.297l0.608-0.172l0.431-0.127l1.024-0.366
			c0.231,0.067,0.467,0.136,0.699,0.203c1.447,0.419,1.747-0.539,1.97,0.048c0.575,1.517,0.57,5.876,0.56,14.859
			c-0.012,12.111-0.027-25.07-0.027,3.536c0,3.841-0.037,5.784-0.073,7.726c-0.062,3.287-0.123,6.574-0.123,7.928h0.023l-0.043,2.28
			h-0.003l-0.098,2.469v0.025l-0.098,2.535v0.127l-0.001,0.077c-0.737,0.457-0.822,0.647-1.027,0.708l-5.081,1.502l-0.159,3.085
			L114.992,265.593z M114.381,271.946c0.008,0.016,0.015,0.021,0.015,0c0.008-0.573,0.017,0.048,0.022,0.27l-0.063-0.27l-0.01-0.043
			C114.308,271.747,114.355,271.898,114.381,271.946z M67.767,258.437c0.028-0.67,0.057-1.337,0.087-1.997l0.253-5.578l-5.501-1.063
			l-1.222-0.236l-1.232-0.238c-6.089-8.11-11.127-17.056-14.908-26.635c0.019-2.646,0.092-3.092,0.353-3.282
			c0.604-0.292,1.035-0.59,1.446-0.891c0.351-0.169,0.649-0.349,0.931-0.53c0.716-0.292,1.239-0.636,1.733-0.967l0.469-0.214
			c0.285,0.215,0.601,0.424,1.005,0.629l0.79,0.436c0.411,0.33,0.839,0.661,1.449,0.982l0.708,0.433l0,0.001
			c0.231,0.149,0.522,0.468,0.844,0.899c0.511,0.685,0.956,1.499,1.313,2.352l0.025,0.051l1.367,3.189
			c0.198,0.464,0.524,1.113,0.852,1.764v0.025c0.23,0.458,0.462,0.92,0.56,1.178c0.331,0.876,0.698,1.6,1.059,2.31
			c0.216,0.424,0.428,0.842,0.458,0.917l0.101,0.253l1.465,3.27l0.026,0.076c1.734,3.766,3.569,8.022,5.391,12.247
			c1.052,2.439,2.099,4.868,3.622,8.279v1.935v1.488v2.481C70.038,260.839,68.89,259.649,67.767,258.437z M49.441,217.141
			l-0.044,0.023l-0.001-0.003L49.441,217.141z M95.102,219.238c-0.442,1.115-0.882,2.225-1.09,2.816l-0.025,0.051l-0.608,1.764
			l-0.338-0.884l-0.002,0.001c-0.16-0.424-0.621-1.58-1.086-2.749c-0.251-0.63-0.503-1.265-0.737-1.873
			c0.109-0.06,0.215-0.12,0.32-0.18c0.506-0.185,0.92-0.402,1.304-0.617c0.128-0.049,0.25-0.1,0.369-0.152l0.661,0.1
			c0.292,0.122,0.598,0.238,0.963,0.34l0.006,0.001l-0.006-0.001c-0.013-0.002-0.019-0.002-0.002,0.004
			c0.222,0.09,0.443,0.181,0.685,0.267c-0.141,0.359-0.288,0.732-0.435,1.104L95.102,219.238z M89.75,202.474
			c0.59-0.96,1.18-2.016,1.77-3.195l1.408,3.221L89.75,202.474z M214.177,196.372c0,0,0.964,0.936,2.76,2.152
			c-1.18-0.002-2.36-0.001-3.54-0.003C213.656,197.821,213.916,197.109,214.177,196.372z M189.228,247.119
			c-0.042-11.103-0.07-18.652,0.112-23.77l0.17,0.023c0,0,2.107,1.979,5.572,1.217l1.212,0.318c0.875,1.478,1.759,3.028,2.602,4.507
			l0.216,0.38l0.025,0.051l3.81,6.563c0.765,1.324,1.631,2.926,2.474,4.488c0.499,0.924,1.004,1.859,1.26,2.325l0.025,0.051
			c0.549,0.979,1.035,1.864,1.479,2.684l-1.938,2.298l0.009,0.007l-3.671,4.106l-0.117,0.117c-0.658,0.771-1.25,1.515-1.874,2.298
			c-0.904,1.136-1.877,2.36-2.388,2.897l-0.117,0.117c-1.198,1.314-2.558,2.374-4.012,3.293c-1.451,0.917-3.09,1.751-4.789,2.563
			C189.276,259.602,189.25,253.073,189.228,247.119z M219.483,269.085l-0.011,0.005c-0.001-0.007-0.001-0.023-0.002-0.031
			L219.483,269.085z M219.479,269.113l0.015,0.033C219.487,269.147,219.483,269.132,219.479,269.113z M246.908,239.727l0.191-0.275
			c0.062-0.089-0.165,0.237,0.682-0.967c0.536,0.642,1.066,1.261,1.588,1.854c-0.396,0.648-0.797,1.294-1.207,1.934L246.908,239.727
			z M149.568,258.702c-0.457-0.278-0.921-0.645-1.23-1.042l-0.049-1.031c0.557,0.763,1.112,1.525,1.664,2.286
			C149.802,258.835,149.67,258.764,149.568,258.702z M245.177,126.372c0,0,2.459-1.113,7.094-0.299
			c1.674,3.075,3.207,6.239,4.599,9.477C253.439,132.387,249.558,129.269,245.177,126.372z M227.141,104.23
			c0.209-2.869,0.186-6.275-0.396-9.913c7.603,6.61,14.325,14.208,19.966,22.593C242.148,112.825,235.724,108.155,227.141,104.23z
			 M87.708,85.841c0.638,0.775,1.212,1.688,1.642,2.774c0,0-0.559-1.098-2.127-2.438C87.385,86.066,87.545,85.951,87.708,85.841z
			 M108.666,279.813l5.867-0.578l6.918-0.372l0.56-0.03c7.881-0.422,16.33-0.875,24.032-0.349l6.377,0.437l0.182-2.246l4.188,0.288
			l0.596-7.378l0.021-0.263c2.013,2.856,3.801,5.442,5.213,7.549l1.692,2.525l3.024,0.314c0.02,0.002,7.214,0.711,10.268,1.072
			l7.056,0.835l2.503,0.41l0.086,0.014c4.297,0.699,8.731,1.422,13.122,2.232c-14.767,6.95-31.258,10.842-48.66,10.842
			c-19.843,0-38.505-5.054-54.773-13.94C100.856,280.658,104.781,280.196,108.666,279.813z"/>
		<polygon points="67.429,47.463 65.219,44.502 53.406,53.322 43.857,40.533 40.194,43.267 51.954,59.018 		"/>
		<path d="M118.29,26.804l-1.723-10.487c-0.092-0.564-0.297-1.573-0.694-3.051c0.625,0.515,1.231,0.917,1.875,1.313l16.216,9.651
			l3.082-0.507l-3.186-19.396l-4.06,0.667l1.673,10.187c0.099,0.602,0.359,1.717,0.738,3.314c-0.807-0.679-1.669-1.231-2.563-1.741
			l-15.522-9.186l-3.082,0.507l3.186,19.396L118.29,26.804z"/>
		<path d="M172.452,23.256c2.872-1.443,4.718-4.349,5.023-8.031c0.504-6.074-3.069-10.001-10.396-10.609l-12.604-1.045
			l-1.624,19.588l11.426,0.948C167.77,24.396,170.456,24.275,172.452,23.256z M157.712,19.854l1.029-12.413l8.086,0.67
			c4.29,0.355,6.277,2.661,5.947,6.647c-0.403,4.859-3.408,6.063-9.178,5.584L157.712,19.854z"/>
		<path d="M194.701,29.63l13.682,4.726c3.492,1.207,4.919,0.692,6.126-2.801l3.383-9.792c1.207-3.493,0.401-4.779-3.091-5.985
			l-13.682-4.727c-3.493-1.206-4.92-0.691-6.126,2.801l-3.383,9.793C190.403,27.138,191.208,28.424,194.701,29.63z M199.686,14.265
			l14.258,4.926l-4.067,11.773l-14.258-4.925L199.686,14.265z"/>
		<polygon points="195.808,328.705 176.586,332.84 177.479,336.988 184.634,335.449 187.813,350.228 192.694,349.177 
			189.515,334.399 196.7,332.853 		"/>
		<polygon points="219.014,320.168 200.556,326.938 202.017,330.922 208.887,328.402 214.093,342.594 218.78,340.875 
			213.575,326.683 220.476,324.152 		"/>
		<polygon points="157.685,349.919 157.485,346.286 170.669,345.563 170.44,341.396 157.257,342.119 157.087,339.039 
			170.655,338.294 170.423,334.057 151.886,335.074 152.946,354.405 171.484,353.388 171.252,349.175 		"/>
		<polygon points="237.459,326.689 235.577,323.575 246.877,316.747 244.72,313.175 233.418,320.003 231.823,317.363 
			243.453,310.335 241.259,306.704 225.369,316.305 235.381,332.875 251.271,323.274 249.089,319.662 		"/>
		<polygon points="102.698,340.643 97.058,324.877 91.678,322.934 85.101,341.143 89.782,342.833 94.175,330.671 99.808,346.454 
			105.188,348.398 111.765,330.189 107.084,328.499 		"/>
		
			<rect x="72.213" y="315.679" transform="matrix(-0.8921 -0.4519 0.4519 -0.8921 -5.6543 649.3669)" width="5.008" height="19.36"/>
		<path d="M139.313,335.565c-1.8-1.247-4.499-1.753-6.636-2.01l-2.898-0.349c-2.191-0.264-5.268-0.444-7.279,0.632
			c-1.951,1.045-2.735,3.109-2.987,5.2l-0.685,5.693c-0.251,2.092,0.016,4.292,1.669,5.769c1.697,1.521,4.731,2.072,6.921,2.335
			l2.897,0.348c2.189,0.264,5.269,0.448,7.278-0.628c1.956-1.042,2.737-3.116,2.988-5.208l0.484-4.021l-11.365-1.367l-0.497,4.132
			l6.33,0.761c-0.063,0.497-0.18,1.282-0.372,1.65c-0.102,0.189-0.234,0.314-0.434,0.409c-0.368,0.168-0.777,0.245-1.188,0.271
			c-0.877,0.055-2-0.09-2.873-0.195l-2.008-0.242c-0.967-0.117-2.225-0.257-3.152-0.552c-0.443-0.142-0.88-0.342-1.245-0.636
			c-0.186-0.152-0.313-0.333-0.374-0.572c-0.124-0.495,0.001-1.59,0.063-2.096l0.575-4.781c0.061-0.504,0.2-1.606,0.438-2.057
			c0.115-0.219,0.283-0.364,0.504-0.471c0.422-0.197,0.909-0.285,1.376-0.316c0.979-0.062,2.198,0.09,3.172,0.208l2.008,0.242
			c0.952,0.115,3.114,0.417,3.904,0.999c0.455,0.339,0.478,0.905,0.415,1.431l-0.172,1.419l5.037,0.606l0.231-1.924
			C141.671,338.299,140.928,336.676,139.313,335.565z"/>
		<path d="M61.424,305.754l-9.4-6.794l-11.341,15.69l4.034,2.916l3.859-5.339l5.614,4.058c0.384,0.277,1.501,1.139,1.628,1.626
			c0.097,0.365-0.424,1.157-0.616,1.422l-2.758,3.817l4.137,2.99l3.099-4.289c0.654-0.905,1.184-1.993,1.071-3.14
			c-0.01-0.1-0.024-0.199-0.043-0.298c0.047-0.006,0.095-0.014,0.142-0.022c1.099-0.193,1.953-0.861,2.596-1.75l1.497-2.071
			c0.976-1.351,1.41-2.941,0.71-4.516C64.909,308.402,62.858,306.791,61.424,305.754z M58.745,313.949
			c-0.639-0.062-2.236-1.179-2.752-1.553l-4.952-3.579l2.531-3.502l4.952,3.579c0.482,0.348,2.128,1.578,2.363,2.125
			c0.113,0.261-0.135,0.636-0.275,0.83l-1.158,1.603C59.296,313.669,59.048,313.977,58.745,313.949z"/>
	</g>
</g>
<g id="Layer_1_copy">
	<path fill-rule="evenodd" clip-rule="evenodd" fill="#0067A6" d="M153.711,292.116c-63.192,0-114.419-51.227-114.419-114.42
		c0-63.19,51.227-114.418,114.419-114.418c63.191,0,114.417,51.228,114.417,114.418C268.128,240.89,216.903,292.116,153.711,292.116
		z M153.701,28.494C71.321,28.494,4.54,95.276,4.54,177.654c0,82.379,66.782,149.161,149.161,149.161
		c82.379,0,149.159-66.782,149.159-149.161C302.86,95.687,235.669,28.494,153.701,28.494z"/>
	<path fill-rule="evenodd" clip-rule="evenodd" fill="#E3E4E5" d="M96.63,60.022c64.366-28.657,141.908-4.097,173.194,54.854
		c8.54,16.092,12.742,33.083,13.042,49.865c2.032-20.398-1.792-41.548-12.281-61.314c-30.665-57.778-106.664-81.85-169.748-53.763
		C70.169,63.319,48.203,86.788,37.245,113.94C49.541,91.243,69.826,71.957,96.63,60.022z"/>
	<path fill-rule="evenodd" clip-rule="evenodd" fill="#E3E4E5" d="M198.354,292.245c-62.128,20.237-130.826-8.434-153.438-64.041
		c-8.869-21.811-9.328-44.525-2.863-65.299c-10.486,23.566-11.722,50.532-1.267,76.244c22.612,55.605,91.309,84.277,153.438,64.041
		c37.761-12.3,64.403-39.836,74.418-72.029C256.451,258.563,231.756,281.366,198.354,292.245z"/>
	<path fill-rule="evenodd" clip-rule="evenodd" d="M294.714,198.941c-4.037-16.569-19.537-31.069-19.537-31.069
		s-9.005-8.01,5.357-5.786c0,0-9.175-22.726-33.357-38.714c0,0,3.667-1.667,10.496,0.559c0,0-17.4-28.266-63.496-31.059
		c0,0-27.415-5.954-63.823-16.442c0,0-21.22-9.501-46.739,2.518c0,0,5.604,1.28,7.734,6.668c0,0-5.703-11.207-31.792-5.716
		c0,0-17.617-10.848-30.964-4.721c0,0-17.333-4.019-25.268,18.397c-3.748,10.584,1.434,19.667,3.44,22.465
		c0,0,0.386-6.132,2.245-8.637c0,0-2.326,19.087,26.121,30.424c0,0-5.096-5.539-7.318-12.552c0,0,7.908,9.757,18.084,13.761
		c0,0,23.088,6.245,36.604,19.518c0,0-9.3,41.932-9.326,44.818c0,0,10.343,12.906,20.343-7.093l9.657,22.093
		c0,0,20.256-22.689,22.671-22.854c0,0,2.474,12.857,5.329,18.854c0,0,0.652-14.624,9.884-16.191c0,0,2.466,15.771,4.116,22.191
		c0,0,11.676-17.324,16.422-16.868c0,0,6.846-9.127,6.465,13.692l23.446,3.176c0,0,11.333,10.666,24.667-27
		c0,0,7.167,7,19.167,7.666c0,0,5.75,13.417,14.902,24.287l13.5,13.667l31.097-38.954L294.714,198.941z"/>
	<path fill-rule="evenodd" clip-rule="evenodd" fill="#CBCCCE" d="M219.127,156.234c0,0-5.617,40.804-18.284,59.471l-14.142-2.313
		c6.085-23.96,3.042-32.708,3.042-32.708c0.977,4.888-18.636,29.666-18.636,29.666c2.513-12.518,0.761-28.144,0.761-28.144
		s-5.325,15.593-19.777,11.029c0,0,7.226-17.495,0.38-30.046c0,0-3.043,25.103-14.072,35.751c0,0,3.042-13.311-2.663-21.679
		c0,0-2.662,8.748-9.508,8.368c0,0-5.705-5.705-0.76-18.637c0,0-10.649,6.846-18.636,37.653c0,0-2.663-24.721-12.551-45.259
		c0,0,9.128,22.82-11.41,35.371c-7.345,4.489-12.751-53.329-28.327-58.392c-13.14-4.272-23.732-11.502-30.655-24.328
		c0,0-6.01,8.966-0.656,13.272c-7.614-6.125-13.147-20.896-8.229-29.685c0,0-5.887,3.532-9.014,7.785c0,0,0.819-23.56,21.885-23.697
		c8.726-0.057,12.452-5.014,30.586,5.35c0,0-7.651-1.596-13.1,0.49c0,0,19.798-1.581,20.15,32.152
		c0.273,26.174,10-6.667-3.333-29.333c0,0,6.732,1.201,10.308,3.055c0,0-2.93-5.621-7.327-7.455c0,0,14.92-3.802,36.743,10.226
		c0,0,0.356-8.955-6.953-14.083c0,0,30.344-7.673,52.497,12.035c22.152,19.707,41.722-21.48,99.222,27.52
		c0,0-9.127,1.616-10.127,4.616c0,0,28.138,12.086,35.638,31.086c0.759,1.925-21.5-6-5.5,11.5c1.861,2.035-16.787-0.656-14.5,1.5
		c2.706,2.551,23.236,4.545,30,13c8,10,6.285,13.729,8.734,19.09c5.465,11.963-29.401,15.91-29.401,15.91
		s-3.02,14.709-13.406-13.487c-2.662-7.227-4,7-4,7c-7.642-8.002-4.927-27.013-4.927-27.013c-6.167,2.833-6.167,13.167-6.167,13.167
		S215.127,192.234,219.127,156.234z"/>
	<polygon fill-rule="evenodd" clip-rule="evenodd" fill="#FFFFFF" points="316.627,253.146 386.905,271.656 407.826,276.371 
		409.44,272.766 402.478,267.796 379.159,259.556 315.622,241.296 	"/>
	<polygon fill="none" stroke="#000000" stroke-width="2.9999" stroke-miterlimit="22.9256" points="316.627,253.146 
		386.905,271.656 407.826,276.371 409.44,272.766 402.478,267.796 379.159,259.556 315.622,241.296 	"/>
	
		<line fill="none" stroke="#000000" stroke-width="2.9999" stroke-miterlimit="22.9256" x1="72.639" y1="179.75" x2="76.541" y2="178.993"/>
	<polyline fill="none" stroke="#000000" stroke-width="1.9998" stroke-miterlimit="22.9256" points="408.908,274.602 
		387.795,266.126 314.769,245.882 	"/>
	<path fill-rule="evenodd" clip-rule="evenodd" fill="#008A52" d="M121.999,206.193l-0.098,0.41v0.55v0.546v0.549l-1.172,0.404
		l-1.123,0.402l-1.173,0.332l-1.026,0.467c-2.149,0.721-3.224,3.737-4.102,6.073c-0.391,1.196-1.074,2.455-1.515,3.577l-1.367,3.688
		c-0.391,1.184-1.074,2.551-1.465,3.726c-0.392,1.177-0.977,2.472-1.417,3.702c-2.344,6.245-4.396,12.769-6.447,19.291v3.128v3.192
		v0.941l0.049,3.137c0,2.345,1.319,5.183,3.126,5.936c0.439,0.056,0.976,0.387,1.367,0.505l1.417,0.509l1.367,0.576l1.515,0.661
		c0,0.633-0.048,1.263,0.097,1.88c-13.023,1.283-26.771,3.398-39.457,6.105c0-0.648-0.007-1.406-0.007-2.054l1.417-1.164
		l1.465-1.163c0.517-0.281,0.908-0.772,1.368-1.13c0.44-0.242,1.123-0.809,1.514-1.123c1.709-1.345,3.371-4.441,3.371-6.787v-3.267
		v-3.272v-1.488v-3.271c-3.224-7.177-6.252-14.586-9.622-21.903l-1.465-3.27c-0.391-0.979-1.075-2.091-1.465-3.125
		c-0.391-1.031-1.074-2.191-1.514-3.221l-1.368-3.189c-1.074-2.569-2.686-4.958-4.641-6.218l-1.172-0.716
		c-0.342-0.177-0.731-0.589-1.074-0.769l-1.173-0.646c-0.293-0.118-0.683-0.582-1.026-0.701v-0.519v-0.462v-0.579l0.099-0.343
		l38.486-0.055l-0.047,0.447v0.452v0.512v0.512c-0.44,0.125-0.93,0.505-1.32,0.565c-0.342,0.127-0.928,0.566-1.318,0.628
		c-0.343,0.124-0.831,0.5-1.222,0.624l-1.221,0.681c-1.075,0.493-2.735,1.349-2.735,2.854c0,1.067,0.438,2.144,0.83,3.16
		c0.684,1.905,1.563,3.952,2.247,5.809l2.199,5.751l2.295,5.755l2.296,5.755l2.099-6.224c0.684-1.958,1.516-4.046,2.15-6.026
		l2.101-6.094c0.683-1.937,1.611-4.005,2.246-5.959c0.341-0.979,0.732-1.826,0.732-2.813c0-1.25-1.368-2.055-2.394-2.327
		c-0.39-0.071-0.977-0.402-1.416-0.537c-0.391-0.068-0.879-0.333-1.27-0.467c-0.391-0.068-0.88-0.332-1.319-0.464
		c-0.391-0.066-0.879-0.392-1.32-0.458l-0.049-0.647v-0.579v-0.519v-0.452L121.999,206.193z"/>
	<path d="M96.832,214.854l0.006,0.001L96.832,214.854L96.832,214.854z M97.94,215.245c-0.02-0.008,0.041,0.017-0.023-0.005
		l0.644-1.878l0.011-0.034l0.03-0.088l0.212-0.618l0.055-0.159l0.009-0.027l0.014-0.042l1.128-3.29l0.19-0.554l0.204-0.595
		l0.145-0.421l0.085-0.247l0.114-0.333l0.178-0.519l0.155-0.452l1.034-3.015c0.218,0.075,0.549,0.216,0.886,0.36l0,0l0,0.001
		l-1.093,2.568l-0.036,0.085l-0.192,0.452l-0.221,0.519l-0.119,0.28l-0.127,0.299l-0.159,0.373l-0.852,2.001l-0.546,1.284
		l-0.529,1.243l-0.013,0.029l-0.079,0.186l-0.021,0.049l-0.243,0.57l-0.012,0.029l-0.049,0.115L97.94,215.245z M95.208,214.414
		c-0.119,0.053-0.241,0.104-0.369,0.152c-0.384,0.215-0.798,0.432-1.304,0.617c-0.104,0.061-0.211,0.121-0.32,0.18
		c0.233,0.608,0.486,1.243,0.737,1.873c0.465,1.169,0.926,2.324,1.086,2.749l0.002-0.001l0.338,0.884l0.608-1.764l0.025-0.051
		c0.208-0.591,0.648-1.701,1.09-2.816l-0.022-0.009c0.147-0.372,0.294-0.745,0.435-1.104c-0.241-0.086-0.462-0.176-0.685-0.267
		c-0.017-0.007-0.011-0.007,0.002-0.004v0c-0.365-0.102-0.671-0.218-0.963-0.34L95.208,214.414z M64.1,274.705
		c0.007,0.714,0.013,1.929,0.008,0.773C64.105,274.958,64.103,274.739,64.1,274.705z M116.381,268.946
		c-0.026-0.048-0.073-0.2-0.037-0.043l0.01,0.043H116.381z M116.417,269.216c-0.005-0.222-0.014-0.843-0.022-0.27
		c0,0.021-0.006,0.016-0.015,0h-0.027L116.417,269.216z M107.767,260.636h0.02l0.005,0.001l-0.007,0.016l-0.022-0.007
		L107.767,260.636z M94.604,256.23v-2.159l-4.841-12.135l-2.296-5.755l-2.295-5.755l-0.051-0.077l-2.199-5.751l-0.025-0.076
		c-0.506-1.375-0.734-1.948-0.961-2.519c-0.417-1.047-0.838-2.105-1.231-3.19l-0.003,0.001l-0.062-0.159
		c-0.596-1.544-1.224-3.169-1.224-5.333c0-0.271,0.011-0.533,0.033-0.79l-10.144,0.014c0.343,0.66,0.659,1.338,0.946,2.024
		l-0.003,0.001l1.345,3.137c0.183,0.429,0.335,0.732,0.487,1.034l0.01-0.005c0.387,0.77,0.778,1.547,1.118,2.446
		c0.083,0.218,0.293,0.634,0.501,1.042c0.26,0.511,0.517,1.018,0.811,1.728l0.001,0l1.433,3.197l0.007-0.003
		c2.063,4.479,3.81,8.529,5.543,12.55c1.574,3.65,3.139,7.28,4.104,9.429l0.583,1.298v1.338v3.271v1.488v3.272v3.267
		c0,1.313-0.246,2.69-0.667,4.028c1.186-0.195,2.38-0.385,3.579-0.571c2.202-0.34,4.401-0.662,6.591-0.962
		c-0.663-1.684-1.042-3.533-1.042-5.248h0.023l-0.047-3.035l-0.025-0.102V256.23z M128.391,207.355v0.344v0.549v4.596l-4.385,1.513
		l-1.104,0.381l0.008,0.023l-1.123,0.401l-0.431,0.127l-0.608,0.172l-0.653,0.297l-0.128,0.058l-0.505,0.169
		c-0.819,0.275,0.327,0.954-0.001,1.938l0.006,0.002l-0.022,0.067v0L119.442,218c-0.316,0.949-0.739,1.872-1.15,2.77
		c-0.129,0.283-0.257,0.561-0.418,0.963l0,0l-1.292,3.485h0.001c-0.197,0.597-0.571,1.481-0.942,2.363
		c-0.226,0.534-0.451,1.068-0.549,1.363c-0.342,1.027-0.615,1.707-0.89,2.394c-0.135,0.336-0.272,0.68-0.552,1.46l-0.05,0.076
		c-2.093,5.575-4.058,11.771-6.017,17.995v2.168v3.192v0.941h-0.024l0.047,3.035l0.025,0.102c0,0.089,0.013,0.187,0.038,0.286
		l0.068,0.031l-0.065-0.019l0.003,0.013l0.084,0.028l0.005-0.01l-0.027-0.012l0.047,0.012h0.005c0.003,0.001,0.002,0.001,0,0.001
		l-0.007,0.016l0.033,0.011l1.417,0.509l0.33,0.127l1.367,0.575l0.076,0.025l1.514,0.661l3.904,1.704v4.228
		c0,0.433,0,0.653-0.002,0.744l1.606,6.85l-7.362,0.726c-6.49,0.64-13.092,1.477-19.584,2.481
		c-6.342,0.981-12.799,2.165-19.163,3.523l-7.833,1.672v-8.009v-0.541c-0.004,0.518-0.007,0.588-0.007-1.513v-3.037l2.383-1.958
		l1.417-1.164l0.076-0.076l1.465-1.164l0.394-0.312l0.11-0.06c0.228-0.214,0.464-0.433,0.915-0.783l0.478-0.372l0.384-0.211
		c0.091-0.05,0.218-0.2,0.43-0.372l0.146-0.117l0.05-0.05c0.145-0.114,0.358-0.447,0.579-0.891c0.186-0.375,0.308-0.677,0.308-0.801
		v-3.267v-3.272v-1.488v-1.935c-1.523-3.411-2.57-5.84-3.622-8.279c-1.822-4.225-3.657-8.48-5.391-12.247l-0.026-0.076l-1.465-3.27
		l-0.101-0.253c-0.03-0.075-0.242-0.492-0.458-0.917c-0.361-0.71-0.729-1.434-1.059-2.31c-0.098-0.258-0.33-0.72-0.56-1.178v-0.025
		c-0.328-0.651-0.654-1.3-0.852-1.764l-1.367-3.189l-0.025-0.051c-0.357-0.853-0.801-1.667-1.313-2.352
		c-0.322-0.432-0.613-0.75-0.844-0.899l0-0.001l-0.708-0.433c-0.61-0.321-1.038-0.652-1.449-0.982l-0.79-0.436
		c-0.41-0.208-0.729-0.419-1.016-0.637l-3.473-1.204v-4.589v-0.519v-0.462v-0.579v-0.808l0.279-0.967l0.099-0.344l1.35-4.683
		l4.861-0.007l35.562-0.051v-0.121l6.541,0.055l24.666,0.208l8.146,0.069L128.391,207.355z"/>
	<path fill-rule="evenodd" clip-rule="evenodd" fill="#008A52" d="M49.86,205.719v0.494l0.047,0.369v0.491l0.099,0.616l-1.319,0.601
		c-0.39,0.18-0.928,0.661-1.368,0.776c-0.39,0.117-0.878,0.595-1.319,0.708c-0.391,0.174-0.879,0.647-1.27,0.819
		c-4.15,2.155-3.955,2.516-3.955,14.928l-0.099,7.498v7.504v-0.242v8.203l0.099,24.907l10.24-2.48
		c4.079-1.006,7.047-2.255,8.543-7.964l2.608-10.021l1.222,0.236c-0.515,11.322-0.729,25.1-0.729,25.1
		c-5.584,1.295-31.133,7.029-51.58,17.095c0.038-0.796,0.114-2.564,0.157-3.365c11.666-12.565,8.683-20.301,8.683-37.737
		l-0.049-8.783v-8.241v-1.064v-8.187c0-11.986,0.147-14.549-4.641-17.191c-0.342-0.112-0.732-0.539-1.074-0.702
		c-0.342-0.113-0.732-0.38-1.076-0.542c-0.341-0.11-0.731-0.531-1.073-0.688c-0.342-0.11-0.733-0.373-1.074-0.53l-0.099-2.556
		L49.86,205.719z"/>
	<path d="M8.223,214.212c0.021,0.008,0.057,0.022,0.002-0.003L8.223,214.212z M10.34,215.415L10.34,215.415l0.001,0.001
		L10.34,215.415z M34.31,223.921c-0.004-5.695-0.007-9.26,0.431-11.719l-9.443,0.012c1.041,3.138,1.04,7.513,1.037,14.724l0,1.041
		h0.025v8.187v1.064v8.241h-0.025l0.049,8.757l0.025,0.025c0,3.712,0.087,6.203,0.167,8.488c0.271,7.75,0.478,13.706-1.59,19.715
		c3.172-1.164,6.313-2.234,9.348-3.21l-0.023-5.832l-0.099-24.907l-0.025-0.025v-7.961v-0.242v-7.262l0.025-0.076l0.099-7.495
		L34.31,223.921z M51.441,214.141l-0.045,0.021l0.001,0.003L51.441,214.141z M56.35,205.719v0.274l0.047,0.369v0.22v0.108
		l0.777,4.84l-4.48,2.041l-0.986,0.449c-0.495,0.331-1.017,0.675-1.733,0.967c-0.281,0.181-0.58,0.36-0.931,0.53
		c-0.411,0.3-0.842,0.599-1.446,0.891c-0.364,0.264-0.363,1.001-0.358,7.515l0.001,1.599v0.076l-0.098,7.422h0.024v7.262v0.242
		v7.961h-0.025l0.066,16.694l2.264-0.548l-0.001-0.006c1.269-0.313,2.295-0.607,2.756-0.977c0.37-0.296,0.718-0.975,1.072-2.323
		l2.608-10.021l1.533-5.889l5.945,1.149l1.222,0.236l5.501,1.063l-0.253,5.578c-0.519,11.409-0.729,24.858-0.73,24.897l-0.072,5.094
		l-4.947,1.143l-0.56,0.129c-6.407,1.479-30.456,7.034-49.601,16.459l-9.831,4.84l0.501-10.924l0.048-1.044
		c0.043-0.97,0.096-2.119,0.109-2.372l0.126-2.361l1.597-1.721c7.713-8.308,7.503-14.354,7.151-24.432
		c-0.104-2.977-0.217-6.221-0.217-8.894h0.025l-0.049-8.758l-0.025-0.025v-8.241v-1.064v-8.187h0.025v-1.041
		c0.003-7.584,0.003-9.57-1.116-10.361c-0.542-0.259-0.947-0.541-1.324-0.826c-0.205-0.105-0.399-0.214-0.591-0.321l-0.034-0.015
		l0.02,0.007l-0.014-0.008H10.34l-0.015-0.006l0,0l0.015,0.006h-0.018c-0.027-0.015-0.015-0.012,0.003-0.006l0,0
		c-0.572-0.254-0.996-0.534-1.383-0.818c-0.268-0.126-0.496-0.251-0.721-0.375c-0.019-0.01-0.01-0.008,0.002-0.004l0.002-0.003
		l-0.005-0.002l-3.599-1.662l-0.153-3.991l-0.099-2.556l-0.257-6.684l6.721-0.009l39.026-0.051l6.49-0.008V205.719z"/>
	<path fill-rule="evenodd" clip-rule="evenodd" fill="#008A52" d="M262.761,205.962l-0.049,0.546v0.694v0.643v0.643
		c-3.712,2.13-7.764,4.313-10.501,8.602c-1.221,1.882-2.636,3.991-3.907,5.798l-3.859,5.558c-1.221,1.748-2.636,3.629-3.908,5.304
		c-1.22,1.733-2.539,3.699-3.76,5.294l4.103,8.322c1.318,2.683,2.881,5.889,4.2,8.735c1.367,2.817,2.832,6.113,4.15,9.147
		c1.32,3.01,2.884,6.359,4.203,9.52c4.541,11.007,8.422,12.041,13.577,16.751v0.683v0.638v0.683v0.831
		c-14.605-6.556-35.303-12.66-43.073-14.721c0-0.614,0-1.244,0.146-1.845c2.626-0.968,6.545-1.855,6.545-5.511
		c0-1.514-0.784-3.333-1.417-4.692l-1.811-4.101l-1.809-3.785l-1.759-3.722c-0.536-1.199-1.268-2.544-1.757-3.7
		c-0.782,0.928-1.563,2.136-2.295,3.062l-2.295,2.985l-2.2,3.005l-2.244,2.927c-0.735,1.018-2.524,3.079-2.524,4.504
		c0,3.529,3.08,4.276,6.693,7.132c0,0.67,0.001,1.307-0.016,1.978c-8.69-2.251-18.131-3.785-26.993-5.228v-0.48l0.096-0.432v-0.479
		l0.052-0.488c4.296-2.027,8.448-4.214,11.817-7.907c1.271-1.338,3.305-4.061,4.524-5.49l3.81-4.259l3.763-4.463
		c1.269-1.434,2.685-2.988,3.906-4.456c-1.221-2.346-2.539-4.816-3.809-7.081c-1.223-2.227-2.541-4.745-3.81-6.94l-3.81-6.563
		c-1.222-2.145-2.54-4.468-3.761-6.464c-4.298-7.167-4.69-6.575-11.722-9.127v-0.598v-0.482v-0.479v-0.417l41.709-0.012v0.433v0.431
		v0.429v0.538c-3.908,1.326-8.986,2.746-8.986,5.612c0,0.883,0.391,1.537,0.782,2.184l1.855,3.51l1.856,3.694
		c0.585,1.169,1.367,2.543,1.905,3.707l1.905,3.83l2.393-3.638l2.395-3.751l2.392-3.867c0.781-1.19,1.758-2.537,2.491-3.765
		c0.488-0.799,1.173-1.551,1.173-2.649c0-3.038-2.735-3.641-5.032-4.575v-0.585l0.049-0.585v-0.528l0.097-0.532L262.761,205.962z"/>
	<path d="M235.149,213.951l-0.104,0.035c-1.977,0.671,0.606-0.215-1.083,0.346c-1.359,0.452-2.881-1.867-3.348-1.47l1.733,3.278
		l0.051,0.127l0.553,1.102l1.011-1.634l0.102-0.152c0.751-1.144,0.835-1.267,0.929-1.403L235.149,213.951z M217.422,268.711
		c-0.219-0.22-0.414-0.602-0.414,0.046C217.008,269.29,217.165,268.967,217.422,268.711z M222.183,271.583
		c0.136-0.043,0.19-0.052,0.733-0.24c0.551-0.19,1.224,2.281,1.224,0.929c0-0.014-0.048-0.125-0.116-0.325
		c-0.152-0.448-0.432-1.069-0.693-1.628l-0.05-0.127l-1.811-4.101l0.014-0.006l-0.654-1.369l-0.32,0.437l-0.076,0.102l-2.146,2.798
		l0.002,0.002c-0.03,0.042-0.167,0.223-0.343,0.452c0.034,0.011,0.069,0.028,0.105,0.051c0.88,0.582,1.852,1.223,3.165,2.261
		L222.183,271.583z M235.085,250.223l-0.01,0.005l-3.473-7.044l-0.111,0.168l-5.012-10.075l-1.905-3.83l-0.076-0.177
		c-0.255-0.552-0.618-1.235-0.974-1.906l-0.01,0.006c-0.041-0.076-0.085-0.161-0.82-1.629l-1.794-3.573l-0.011,0.005l-1.704-3.224
		c-0.289-0.479-0.581-0.976-0.942-1.847c-0.451-1.09-0.751-2.274-0.751-3.64c0-0.335,0.014-0.66,0.042-0.975l-9.804,0.003
		c0.248,0.403,0.504,0.828,0.773,1.275l0.003-0.002c1.154,1.888,2.439,4.144,3.646,6.261l0.188,0.331l0.002-0.001l3.81,6.564
		c0.936,1.619,1.818,3.252,2.677,4.843c0.332,0.615,0.65,1.204,1.182,2.174l0.002-0.001c0.533,0.952,1.169,2.117,1.869,3.418
		c0.692,1.287,1.243,2.32,1.669,3.13l0.37-0.438l4.112,9.72c0.126,0.299,0.463,0.979,0.797,1.657
		c0.264,0.534,0.527,1.068,0.854,1.792l0.005-0.002l1.759,3.721l-0.011,0.005l1.794,3.755l0.102,0.177l1.755,3.976l0.005-0.002
		c0.372,0.799,0.801,1.769,1.2,2.947c0.482,1.426,0.826,2.954,0.826,4.482c0,1.649-0.243,3.033-0.669,4.208
		c3.783,1.146,8.05,2.497,12.438,3.983c-0.471-0.987-0.946-2.056-1.426-3.22l-0.009,0.003c-0.935-2.241-1.785-4.13-2.609-5.965
		c-0.583-1.297-1.156-2.571-1.543-3.453c-0.522-1.202-1.168-2.666-2.031-4.579c-0.721-1.598-1.412-3.093-2.017-4.34l-0.051-0.102
		c-0.691-1.492-1.386-2.95-2.05-4.327C235.885,251.863,235.335,250.73,235.085,250.223z M269.202,206.508v0.694v0.643v0.643v3.755
		l-3.27,1.873l-0.528,0.302c-2.912,1.666-6.018,3.442-7.742,6.144l-0.026,0.051c-0.936,1.442-1.646,2.524-2.05,3.125
		c-0.564,0.837-1.223,1.794-1.963,2.846l0.005,0.004l-3.859,5.558h-0.025c-0.748,1.071-1.422,2.002-2.036,2.832
		c-0.238,0.321-1.01,1.339-1.883,2.49l0.011,0.008l-1.024,1.455l-0.509,0.734l2.384,4.835v0.026
		c1.074,2.186,1.967,4.004,2.125,4.331c0.776,1.608,1.524,3.177,2.151,4.53l-0.001,0c0.744,1.536,1.453,3.063,2.12,4.542
		c0.541,1.197,1.286,2.899,2.082,4.73c0.576,1.313,1.031,2.326,1.492,3.352c0.996,2.215,2.021,4.496,2.762,6.27v0.025
		c2.914,7.063,5.446,9.091,8.395,11.451h0.025c1.135,0.909,2.316,1.854,3.535,2.968l2.129,1.945v2.846v0.683v0.638v0.683v0.831
		v10.003l-9.126-4.096c-5.598-2.513-12.255-4.998-18.722-7.208c-9.716-3.32-18.82-5.953-23.362-7.158l-3.5-0.928l-3.218-0.833
		c-8.331-2.159-17.61-3.669-26.324-5.087l-0.086-0.014l-5.45-0.893v-5.495v-0.48v-0.592l0.095-0.432v-0.07l0.051-0.477l0.051-0.488
		l0.386-3.645l3.291-1.552c1.968-0.928,3.879-1.879,5.571-2.949c1.525-0.964,2.955-2.079,4.218-3.463l0.102-0.102
		c0.548-0.577,1.537-1.82,2.453-2.973c0.621-0.78,1.21-1.521,1.843-2.264l0.102-0.101l3.69-4.125l-0.007-0.006l3.763-4.463
		l0.102-0.102l0.945-1.069l-0.006-0.011c-0.19,0.212-0.287,0.32,0,0c-0.486-0.901-1.035-1.9-1.653-3.003l-0.025-0.051
		c-0.256-0.466-0.761-1.401-1.26-2.325c-0.843-1.563-1.709-3.165-2.474-4.488l-3.81-6.563l-0.025-0.051l-0.216-0.38
		c-1.114-1.955-2.3-4.038-3.443-5.906l-0.025-0.05c-2.6-4.335-3.056-4.495-6.135-5.572c-0.731-0.255-1.549-0.542-2.24-0.792
		l-4.284-1.555v-4.53v-0.598v-0.482v-0.479v-0.417v-6.462l6.49-0.002l41.574-0.012l0.021-0.117l5.389,0.01l24.519,0.048l7.065,0.014
		L269.202,206.508L269.202,206.508z"/>
	<path fill-rule="evenodd" clip-rule="evenodd" fill="#008A52" d="M180.364,271.343v-3.719c0-63.109-1.659-54.953,10.159-59.806
		v-0.569v-0.51v-0.44v-0.32l-25.494,0.13v0.318v0.383v0.387l0.097,0.514c0.391,0.063,0.976,0.447,1.368,0.575l1.464,0.638
		l1.465,0.64l1.514,0.699c4.836,2.227,3.517,14.87,3.517,31.339c-8.597-12.046-16.948-23.664-25.252-35.041l-26.324-0.384v0.39
		v0.455v0.459v0.585c10.158,3.172,9.622,0.642,9.622,25.379c0,5.195-0.196,10.458-0.196,15.653l-0.049,2.533l-0.098,2.469
		l-0.098,2.535l-0.048,2.598c0,1.626-0.953,3.565-2.296,4.471c-2.349,1.586-6.007,3.661-6.497,3.805l-0.098,1.892
		c8.246-0.441,17.129-0.94,25.352-0.378l0.147-1.81c0,0-3.037-1.283-4.396-2.11c-2.256-1.373-4.787-3.902-4.787-6.815l-0.149-3.096
		l-0.096-2.263l-0.049-2.33l-0.098-2.263c0-3.371-0.244-6.601-0.244-9.972V227.74c6.789,8.273,23.769,31.449,31.193,42.53
		C169.994,270.271,177.612,271.017,180.364,271.343z"/>
	<path d="M145.927,258.285c0,0.121,0.015-0.043,0.04-0.11l-0.046,0.032L145.927,258.285z M163.35,213.979l-0.871-0.143
		c1.536,2.123,3.03,4.191,4.488,6.216l1.273,1.77c0.042-3.519,0.048-5.65-0.015-5.679l-1.514-0.699l0.001-0.003l-1.34-0.586
		l-1.168-0.509C163.879,214.227,163.608,214.104,163.35,213.979z M173.874,264.102c-0.001-6.009-0.004-9.686-0.009-12.188
		l-4.683-6.561c-4.798-6.723-9.107-12.743-12.71-17.746c-3.77-5.235-7.313-10.132-10.586-14.629l-7.618-0.111
		c0.268,1.322,0.435,2.848,0.538,4.687l4.99,6.08c3.522,4.293,9.486,12.175,15.472,20.336c5.2,7.089,10.512,14.519,14.342,20.107
		L173.874,264.102z M186.854,267.624v3.719v7.298l-7.25-0.858c-3.053-0.361-10.248-1.07-10.268-1.072l-3.024-0.314l-1.692-2.525
		c-3.629-5.417-9.734-13.979-15.797-22.246c-1.112-1.516-2.219-3.017-3.304-4.48c0.01,0.445,0.016,0.847,0.016,1.189h-0.013
		l0.085,1.984v0.152l0.047,2.203h0.002l0.094,2.212h0.002l0.149,3.096l0.019,0.226l0.046-0.032c0.008-0.022,0.018-0.034,0.028-0.02
		c0.391,0.556,1.005,1.056,1.602,1.419c0.875,0.532,3.526,1.651,3.533,1.654l4.333,1.817l-0.378,4.672l-0.147,1.81l-0.518,6.394
		l-6.377-0.437c-7.702-0.526-16.15-0.074-24.032,0.349l-0.56,0.03l-7.165,0.385l0.371-7.179l0.098-1.892l0.237-4.585l4.402-1.297
		c0.159-0.046,0.455-0.345,1.468-0.938c0.799-0.468,1.754-1.056,2.694-1.674l0.04-2.151v-0.127l0.098-2.535v-0.025l0.098-2.469
		h0.003l0.043-2.28h-0.023c0-1.354,0.062-4.641,0.123-7.928c0.037-1.941,0.073-3.885,0.073-7.726c0-28.606,0.016,8.575,0.027-3.536
		c0.01-8.983,0.016-13.342-0.56-14.859c-0.223-0.587-0.523,0.371-1.97-0.048c-1.03-0.298-2.152-0.624-2.557-0.75l-4.563-1.424
		v-4.761v-0.585v-0.459v-0.455v-0.39v-6.56l6.565,0.095l26.324,0.384l3.238,0.047l1.908,2.614c1.468,2.011,2.897,3.974,4.291,5.891
		l-0.049-0.261l-0.127-0.673v-0.518v-0.387v-0.383v-0.318v-6.431l6.464-0.033l25.494-0.131l6.515-0.033v6.498v0.32v0.44v0.51v0.569
		v4.328l-4.03,1.655c-1.379,0.566-2.667,0.995-3.794,1.371c-1.056,0.352-1.577,0.525-1.767,1.646
		c-0.739,4.354-0.706,13.095-0.641,30.326C186.814,256.017,186.854,266.249,186.854,267.624z"/>
	<path fill-rule="evenodd" clip-rule="evenodd" fill="#008A52" d="M125.37,203.107l-0.014,0.471v0.549v0.547v0.548l-1.173,0.405
		l-1.122,0.402l-1.173,0.331l-1.025,0.467c-2.15,0.722-3.223,3.739-4.103,6.073c-0.391,1.196-1.075,2.455-1.514,3.577l-1.367,3.687
		c-0.391,1.185-1.074,2.551-1.465,3.727c-0.392,1.177-0.977,2.472-1.417,3.702c-2.344,6.246-4.396,12.77-6.447,19.292v3.128v3.193
		v0.94l0.049,3.136c0,2.346,1.318,5.183,3.126,5.938c0.438,0.055,0.977,0.386,1.367,0.505l1.417,0.509l1.368,0.575l1.513,0.661
		v0.466v0.465v0.535l0.098,0.412c-7.316,0.338-31.652,4.042-39.463,5.997v-0.68v-0.42v-0.422v-0.421l1.416-1.164l1.465-1.164
		c0.439-0.239,0.978-0.825,1.368-1.131c0.44-0.24,1.123-0.808,1.513-1.122c1.71-1.343,3.372-4.441,3.372-6.786v-3.268v-3.271v-1.489
		v-3.268c-3.224-7.179-6.252-14.588-9.622-21.904l-1.466-3.268c-0.391-0.981-1.075-2.092-1.466-3.126
		c-0.39-1.03-1.074-2.191-1.513-3.22l-1.368-3.19c-1.074-2.57-2.686-4.957-4.64-6.219l-1.173-0.716
		c-0.342-0.178-0.732-0.587-1.075-0.766l-1.17-0.648c-0.295-0.117-0.685-0.583-1.027-0.7v-0.519V204v-0.581l0.099-0.342
		c12.818-0.041,25.323-0.307,38.453-0.123l-0.014,0.515v0.453v0.511v0.511c-0.44,0.125-0.93,0.507-1.32,0.567
		c-0.342,0.125-0.928,0.566-1.318,0.627c-0.342,0.124-0.831,0.5-1.222,0.624l-1.221,0.682c-1.075,0.493-2.735,1.348-2.735,2.854
		c0,1.066,0.439,2.142,0.83,3.158c0.684,1.906,1.563,3.955,2.248,5.811l2.198,5.751l2.295,5.755l2.296,5.756l2.1-6.225
		c0.684-1.958,1.515-4.046,2.149-6.026l2.101-6.096c0.683-1.936,1.612-4.005,2.246-5.958c0.341-0.978,0.733-1.826,0.733-2.813
		c0-1.25-1.368-2.056-2.394-2.327c-0.391-0.071-0.978-0.403-1.417-0.537c-0.391-0.068-0.879-0.333-1.27-0.466
		c-0.391-0.068-0.88-0.332-1.318-0.464c-0.392-0.067-0.879-0.394-1.319-0.459l-0.05-0.646v-0.58v-0.519c0-0.151,0-0.303,0-0.454
		c4.947-0.073,9.82,0.088,14.722,0.126c1.928,0.015,3.857,0.059,5.808,0.049C122.652,203.127,123.995,203.043,125.37,203.107z"/>
	<path fill="none" stroke="#000000" stroke-width="14.9762" stroke-miterlimit="22.9256" d="M125.37,203.107l-0.014,0.471v0.549
		v0.547v0.548l-1.173,0.405l-1.122,0.402l-1.173,0.331l-1.025,0.467c-2.15,0.722-3.223,3.739-4.103,6.073
		c-0.391,1.196-1.075,2.455-1.514,3.577l-1.367,3.687c-0.391,1.185-1.074,2.551-1.465,3.727c-0.392,1.177-0.977,2.472-1.417,3.702
		c-2.344,6.246-4.396,12.77-6.447,19.292v3.128v3.193v0.94l0.049,3.136c0,2.346,1.318,5.183,3.126,5.938
		c0.438,0.055,0.977,0.386,1.367,0.505l1.417,0.509l1.368,0.575l1.513,0.661v0.466v0.465v0.535l0.098,0.412
		c-7.316,0.338-31.652,4.042-39.463,5.997v-0.68v-0.42v-0.422v-0.421l1.416-1.164l1.465-1.164c0.439-0.239,0.978-0.825,1.368-1.131
		c0.44-0.24,1.123-0.808,1.513-1.122c1.71-1.343,3.372-4.441,3.372-6.786v-3.268v-3.271v-1.489v-3.268
		c-3.224-7.179-6.252-14.588-9.622-21.904l-1.466-3.268c-0.391-0.981-1.075-2.092-1.466-3.126c-0.39-1.03-1.074-2.191-1.513-3.22
		l-1.368-3.19c-1.074-2.57-2.686-4.957-4.64-6.219l-1.173-0.716c-0.342-0.178-0.732-0.587-1.075-0.766l-1.17-0.648
		c-0.295-0.117-0.685-0.583-1.027-0.7v-0.519V204v-0.581l0.099-0.342c12.818-0.041,25.323-0.307,38.453-0.123l-0.014,0.515v0.453
		v0.511v0.511c-0.44,0.125-0.93,0.507-1.32,0.567c-0.342,0.125-0.928,0.566-1.318,0.627c-0.342,0.124-0.831,0.5-1.222,0.624
		l-1.221,0.682c-1.075,0.493-2.735,1.348-2.735,2.854c0,1.066,0.439,2.142,0.83,3.158c0.684,1.906,1.563,3.955,2.248,5.811
		l2.198,5.751l2.295,5.755l2.296,5.756l2.1-6.225c0.684-1.958,1.515-4.046,2.149-6.026l2.101-6.096
		c0.683-1.936,1.612-4.005,2.246-5.958c0.341-0.978,0.733-1.826,0.733-2.813c0-1.25-1.368-2.056-2.394-2.327
		c-0.391-0.071-0.978-0.403-1.417-0.537c-0.391-0.068-0.879-0.333-1.27-0.466c-0.391-0.068-0.88-0.332-1.318-0.464
		c-0.392-0.067-0.879-0.394-1.319-0.459l-0.05-0.646v-0.58v-0.519c0-0.151,0-0.303,0-0.454c4.947-0.073,9.82,0.088,14.722,0.126
		c1.928,0.015,3.857,0.059,5.808,0.049C122.652,203.127,123.995,203.043,125.37,203.107z"/>
	<path fill-rule="evenodd" clip-rule="evenodd" fill="#008A52" d="M53.319,203.089c0,0.656,0.038,0.927,0.141,1.574
		c-8.492,3.879-9.231,6.707-9.231,17.833l-0.099,7.497v7.504v-0.243v8.206l0.099,24.906l10.241-2.482
		c4.079-1.006,7.047-2.255,8.542-7.964l2.61-10.019l1.221,0.235c-0.515,11.323-0.733,25.333-0.733,25.333
		c-5.519,0.959-31.129,6.797-51.577,16.863c0-0.788,0.066-1.581,0.099-2.361c11.666-12.563,8.742-21.307,8.742-38.741l-0.049-8.782
		v-8.241v-1.067v-8.184c0-10.251-0.27-15.641-8.938-19.655c-0.115-0.848-0.092-1.308-0.092-2.161L53.319,203.089z"/>
	<path fill="none" stroke="#000000" stroke-width="14.9762" stroke-miterlimit="22.9256" d="M53.319,203.089
		c0,0.656,0.038,0.927,0.141,1.574c-8.492,3.879-9.231,6.707-9.231,17.833l-0.099,7.497v7.504v-0.243v8.206l0.099,24.906
		l10.241-2.482c4.079-1.006,7.047-2.255,8.542-7.964l2.61-10.019l1.221,0.235c-0.515,11.323-0.733,25.333-0.733,25.333
		c-5.519,0.959-31.129,6.797-51.577,16.863c0-0.788,0.066-1.581,0.099-2.361c11.666-12.563,8.742-21.307,8.742-38.741l-0.049-8.782
		v-8.241v-1.067v-8.184c0-10.251-0.27-15.641-8.938-19.655c-0.115-0.848-0.092-1.308-0.092-2.161L53.319,203.089z"/>
	<path fill-rule="evenodd" clip-rule="evenodd" fill="#008A52" d="M266.216,202.938l-0.049,0.546v0.694v0.643v0.643
		c-3.714,2.131-7.766,4.312-10.503,8.603c-1.221,1.881-2.636,3.989-3.907,5.797l-3.858,5.556c-1.221,1.75-2.637,3.631-3.907,5.305
		c-1.221,1.734-2.541,3.7-3.761,5.294l4.101,8.321c1.321,2.683,2.882,5.889,4.203,8.736c1.367,2.817,2.832,6.114,4.151,9.148
		c1.319,3.008,2.883,6.358,4.201,9.52c4.542,11.006,8.422,12.041,13.581,16.749v0.685v0.636v0.685v0.83
		c-14.608-6.556-35.311-12.979-43.075-14.722v-0.55l0.047-0.394v-0.498l0.099-0.403c2.734-1.007,6.543-1.88,6.543-5.51
		c0-1.515-0.781-3.333-1.416-4.694l-1.812-4.099l-1.808-3.785l-1.759-3.722c-0.537-1.2-1.268-2.544-1.758-3.7
		c-0.781,0.926-1.561,2.135-2.294,3.062l-2.295,2.985l-2.2,3.005l-2.245,2.926c-0.734,1.018-2.522,3.08-2.522,4.503
		c0,3.53,3.079,4.278,6.692,7.133v0.503v0.503v0.56l-0.012,0.445c-4.389-1.328-18.299-3.844-26.999-5.26v-0.481l0.096-0.432v-0.48
		l0.051-0.487c4.297-2.026,8.449-4.212,11.819-7.907c1.27-1.336,3.306-4.061,4.524-5.487l3.809-4.26l3.763-4.464
		c1.268-1.433,2.686-2.986,3.906-4.455c-1.221-2.346-2.539-4.816-3.809-7.081c-1.223-2.227-2.541-4.745-3.811-6.941l-3.808-6.565
		c-1.223-2.143-2.542-4.468-3.763-6.462c-4.297-7.168-4.688-6.574-11.723-9.127v-0.6v-0.48v-0.479c0-0.133,0-0.265,0-0.397
		c13.904-0.107,27.808-0.022,41.712-0.034v0.433v0.431v0.43v0.539c-3.908,1.325-8.986,2.746-8.986,5.611
		c0,0.883,0.391,1.536,0.781,2.184l1.857,3.512l1.854,3.693c0.586,1.17,1.368,2.543,1.905,3.706l1.906,3.83l2.393-3.637l2.395-3.752
		l2.391-3.867c0.783-1.188,1.759-2.535,2.492-3.763c0.488-0.799,1.173-1.55,1.173-2.649c0-3.037-2.735-3.64-5.033-4.576v-0.583
		l0.049-0.586v-0.529l0.079-0.428L266.216,202.938z"/>
	<path d="M236.804,211.834c-0.219-0.231-0.432-0.529-0.63-0.83l-0.462-0.188l0.787,1.487l0.071-0.115l0.117-0.175L236.804,211.834z
		 M221.577,265.434c-0.063-0.173-0.108-0.198-0.115,0.174L221.577,265.434z M221.638,265.623c-0.022-0.072-0.042-0.137-0.062-0.189
		l-0.115,0.174l-0.001,0.125c0,0.081,0.001,0.148,0.002,0.204l0.087,0.066C221.575,265.906,221.604,265.771,221.638,265.623z
		 M221.55,266.003l-0.087-0.066C221.471,266.23,221.501,266.188,221.55,266.003z M225.732,267.368l-1.633-3.694l-0.002,0.001
		l-0.024-0.05l-1.23,1.604c0.688,0.465,1.468,1.016,2.444,1.787L225.732,267.368z M237.634,247.644l-2.704-5.486l-0.106,0.161
		l-5.784-11.621l-1.906-3.83l-0.088-0.205c-0.145-0.314-0.559-1.093-0.965-1.858l-0.823-1.643l-1.783-3.553l-0.012,0.006
		l-1.684-3.184c-0.303-0.504-0.611-1.028-1.003-1.976c-0.497-1.203-0.829-2.51-0.829-4.016c-2.336-0.003-4.673-0.006-7.01-0.007
		c1.105,1.816,2.33,3.965,3.486,5.993l0.232,0.407l0.003-0.002l3.808,6.565c0.949,1.641,1.829,3.271,2.688,4.862
		c0.338,0.625,0.666,1.234,1.179,2.168l0.002-0.001c0.525,0.936,1.167,2.113,1.878,3.435c0.369,0.687,0.694,1.293,0.979,1.827
		l0.461-0.547l4.749,11.186c0.194,0.456,0.481,1.038,0.769,1.621c0.265,0.536,0.532,1.076,0.866,1.818l0.006-0.003l1.748,3.699
		l0.011-0.005l1.808,3.785l0.087,0.205l1.749,3.955l0.005-0.002c0.365,0.783,0.793,1.759,1.238,3.079
		c0.513,1.522,0.879,3.151,0.879,4.774c0,1.282-0.13,2.415-0.366,3.423c2.887,0.882,6.012,1.882,9.228,2.966
		c-0.145-0.337-0.29-0.681-0.437-1.035l-0.01,0.004c-0.957-2.295-1.798-4.168-2.614-5.983c-0.588-1.309-1.168-2.601-1.528-3.42
		c-0.499-1.147-1.136-2.591-2.028-4.567c-0.721-1.599-1.409-3.088-2.005-4.317l-0.059-0.117c-0.693-1.496-1.385-2.95-2.043-4.313
		C238.956,250.337,238.256,248.908,237.634,247.644z M273.655,203.484v0.694v0.643v0.643v4.334l-3.773,2.16l-0.531,0.304
		c-2.812,1.607-5.81,3.322-7.398,5.812l-0.029,0.059c-0.969,1.494-1.674,2.57-2.044,3.118c-0.563,0.835-1.231,1.807-1.985,2.88
		l0.005,0.004l-3.858,5.556h-0.029c-0.764,1.095-1.441,2.031-2.052,2.856c-0.163,0.22-0.948,1.254-1.868,2.467l0.013,0.01
		c-1.239,1.762-0.938,1.329-1.007,1.428l-0.191,0.275l2.123,4.307c0.698,1.418,1.44,2.935,2.13,4.365
		c0.783,1.623,1.534,3.196,2.16,4.547l-0.001,0c0.749,1.547,1.458,3.076,2.124,4.55c0.512,1.134,1.267,2.856,2.086,4.743
		c0.591,1.348,1.026,2.315,1.47,3.303c1.015,2.259,2.061,4.585,2.79,6.334v0.029c2.818,6.829,5.257,8.78,8.099,11.054
		c1.266,1.013,2.583,2.066,3.61,3.003l2.457,2.243v3.285v0.685v0.636v0.685v0.83v11.542l-10.53-4.726
		c-6.091-2.734-13.43-5.49-20.416-7.878c-7.634-2.609-14.668-4.721-19.135-5.863l-0.012,0.479l-6.638-2.009l-1.319-0.296v-0.104
		l-1.416-0.428c-1.737-0.525-5.211-1.274-9.252-2.061c-5.654-1.102-12.076-2.228-16.781-2.994l-6.289-1.024v-6.347v-0.481v-0.686
		l0.097-0.438l0.057-0.55l0.051-0.488l0.438-4.203l3.804-1.793c1.941-0.915,3.823-1.85,5.467-2.889
		c1.454-0.919,2.813-1.979,4.012-3.293l0.117-0.117c0.51-0.537,1.484-1.761,2.388-2.897c0.623-0.783,1.215-1.528,1.874-2.298
		l0.117-0.117l3.671-4.106l-0.009-0.007l3.764-4.464l0.117-0.117l0.482-0.547c-0.396-0.726-0.833-1.519-1.321-2.389l-0.029-0.059
		c-0.278-0.507-0.774-1.424-1.27-2.343c-0.84-1.558-1.703-3.155-2.453-4.452l-3.808-6.565l-0.029-0.059l-0.264-0.463
		c-1.093-1.916-2.254-3.951-3.381-5.793l-0.029-0.059c-2.413-4.025-2.825-4.169-5.608-5.142c-0.729-0.255-1.533-0.536-2.253-0.797
		l-4.943-1.793v-5.227v-0.6v-0.48v-0.479h0.029v-0.397l-0.005-7.401l7.435-0.057c9.273-0.071,18.556-0.058,27.837-0.044
		c4.634,0.006,9.27,0.013,13.904,0.01l6.969-0.006l22.826-0.051l8.15-0.018L273.655,203.484L273.655,203.484z"/>
	<path fill-rule="evenodd" clip-rule="evenodd" fill="#008A52" d="M183.817,268.318v-3.717c0-63.111-1.659-54.955,10.159-59.806
		c0-0.614,0-1.157,0-1.771c-8.498,0.02-16.995,0.041-25.493,0.061c0,0.554-0.006,1.054,0.098,1.602
		c0.483,0.079,0.904,0.426,1.367,0.575l1.464,0.639l1.466,0.638l1.514,0.7c4.836,2.226,3.517,14.869,3.517,31.338
		c-8.596-12.046-16.949-23.663-25.25-35.041c-8.775-0.128-17.554-0.309-26.326-0.383v0.39v0.454v0.459v0.585
		c10.158,3.173,9.622,0.642,9.622,25.379c0,5.196-0.196,10.458-0.196,15.652l-0.049,2.535l-0.098,2.468l-0.098,2.534l-0.048,2.6
		c0,1.626-0.953,3.563-2.296,4.47c-2.348,1.585-6.007,3.66-6.496,3.805l-0.098,1.891c4.079-0.374,20.191-0.73,25.352-0.376
		l0.146-1.811c0,0-3.036-1.283-4.396-2.11c-2.255-1.373-4.787-3.902-4.787-6.817l-0.149-3.095l-0.096-2.263l-0.05-2.329
		l-0.097-2.265c0-3.37-0.244-6.601-0.244-9.97v-10.623c6.788,8.273,23.769,31.45,31.193,42.531
		C173.448,267.248,181.066,267.994,183.817,268.318z"/>
	<path d="M154.969,257.285l3.412,1.431c-2.21-3.083-4.56-6.323-6.905-9.521l-1.422-1.935l0.001,0.022v0.146l0.047,2.183h0.003
		l0.094,2.205h0.002l0.137,2.844c0.31,0.397,0.773,0.765,1.23,1.042C152.368,256.188,154.962,257.282,154.969,257.285
		 M128.498,226.884c0.004-3.632,0.008-6.498-0.025-8.708C128.479,221.338,128.489,235.662,128.498,226.884z M169.75,213.32
		l-1.135-0.494c0.889,1.229,1.759,2.437,2.613,3.622l0.06,0.083c0.117-1.541,0.147-2.426-0.026-2.506l-1.514-0.7L169.75,213.32z
		 M176.329,258.237c-0.001-4.191-0.003-7.016-0.006-9.026l-4.498-6.305c-4.853-6.801-9.145-12.796-12.707-17.742
		c-3.705-5.145-7.147-9.904-10.29-14.226l-5.046-0.083l-0.877-0.015c0.146,0.989,0.252,2.08,0.328,3.305l4.785,5.831
		c3.546,4.321,9.523,12.22,15.51,20.383C168.055,246.534,172.674,252.974,176.329,258.237z M191.305,264.602v3.717v8.418
		l-8.365-0.988c-2.244-0.265-10.233-1.069-10.252-1.071l-3.488-0.362l-1.952-2.914c-1.899-2.834-4.485-6.542-7.392-10.623
		l-0.323,3.995l-0.146,1.811l-0.596,7.378l-7.36-0.505c-2.308-0.158-6.781-0.171-11.297-0.104
		c-5.405,0.08-10.848,0.265-12.884,0.452l-8.573,0.787l0.442-8.597l0.097-1.892l0.272-5.284l5.081-1.502
		c0.225-0.066,0.296-0.285,1.249-0.843c0.652-0.382,1.42-0.853,2.209-1.362l0.03-1.621v-0.146l0.098-2.534v-0.029l0.097-2.467h0.003
		l0.043-2.243h-0.027c0-1.14,0.064-4.547,0.127-7.942c0.035-1.836,0.069-3.672,0.069-7.71c0-7.833,0-11.409,0.002-12.481
		c-0.05-3.033-0.173-4.785-0.468-5.563c-0.398-1.052-0.183,0.883-1.313,0.556c-1.081-0.313-2.276-0.66-2.578-0.754l-5.265-1.645
		v-5.493v-0.585v-0.459v-0.454v-0.39v-7.522l7.546,0.063c5.975,0.051,11.8,0.147,17.625,0.244c3.024,0.05,6.05,0.101,8.73,0.139
		l3.736,0.054l2.201,3.018l2.312,3.17v-6.675l7.488-0.018l25.493-0.061l7.488-0.018v7.477v1.771v4.994l-4.651,1.91
		c-1.398,0.574-2.711,1.011-3.861,1.394c-0.673,0.224-1.005,0.335-1.095,0.866c-0.728,4.283-0.694,12.992-0.629,30.16
		C191.264,253.472,191.305,264.25,191.305,264.602z"/>
	<path fill-rule="evenodd" clip-rule="evenodd" fill="#008A52" d="M125.454,203.169l-0.098,0.41v0.549v0.547v0.548l-1.173,0.405
		l-1.122,0.402l-1.173,0.331l-1.025,0.467c-2.15,0.722-3.223,3.739-4.103,6.073c-0.391,1.196-1.075,2.455-1.514,3.577l-1.367,3.687
		c-0.391,1.185-1.074,2.551-1.465,3.727c-0.392,1.177-0.977,2.472-1.417,3.702c-2.344,6.246-4.396,12.77-6.447,19.292v3.128v3.193
		v0.94l0.049,3.136c0,2.346,1.318,5.183,3.126,5.938c0.438,0.055,0.977,0.386,1.367,0.505l1.417,0.509l1.368,0.575l1.514,0.661
		l0.097,1.878c-12.717,0.77-27.021,2.883-39.463,5.997v-0.68v-0.42v-0.422v-0.421l1.416-1.164l1.465-1.164
		c0.439-0.239,0.978-0.825,1.368-1.131c0.44-0.24,1.123-0.808,1.513-1.122c1.71-1.343,3.372-4.441,3.372-6.786v-3.268v-3.271v-1.489
		v-3.268c-3.224-7.179-6.252-14.588-9.622-21.904l-1.466-3.268c-0.391-0.981-1.075-2.092-1.466-3.126
		c-0.39-1.03-1.074-2.191-1.513-3.22l-1.368-3.19c-1.074-2.57-2.686-4.957-4.64-6.219l-1.173-0.716
		c-0.342-0.178-0.732-0.587-1.075-0.766l-1.17-0.648c-0.295-0.117-0.685-0.583-1.027-0.7v-0.519V204v-0.581l0.099-0.342
		l38.487-0.055l-0.048,0.447v0.453v0.511v0.511c-0.44,0.125-0.93,0.507-1.32,0.567c-0.342,0.125-0.928,0.566-1.318,0.627
		c-0.342,0.124-0.831,0.5-1.222,0.624l-1.221,0.682c-1.075,0.493-2.735,1.348-2.735,2.854c0,1.066,0.439,2.142,0.83,3.158
		c0.684,1.906,1.563,3.955,2.248,5.811l2.198,5.751l2.295,5.755l2.296,5.756l2.1-6.225c0.684-1.958,1.515-4.046,2.149-6.026
		l2.101-6.096c0.683-1.936,1.612-4.005,2.246-5.958c0.341-0.978,0.733-1.826,0.733-2.813c0-1.25-1.368-2.056-2.394-2.327
		c-0.391-0.071-0.978-0.403-1.417-0.537c-0.391-0.068-0.879-0.333-1.27-0.466c-0.391-0.068-0.88-0.332-1.318-0.464
		c-0.392-0.067-0.879-0.394-1.319-0.459l-0.05-0.646v-0.58v-0.519v-0.454L125.454,203.169z"/>
	<path fill="none" stroke="#FFFFFF" stroke-width="6.9889" stroke-miterlimit="22.9256" d="M125.454,203.169l-0.098,0.41v0.549
		v0.547v0.548l-1.173,0.405l-1.122,0.402l-1.173,0.331l-1.025,0.467c-2.15,0.722-3.223,3.739-4.103,6.073
		c-0.391,1.196-1.075,2.455-1.514,3.577l-1.367,3.687c-0.391,1.185-1.074,2.551-1.465,3.727c-0.392,1.177-0.977,2.472-1.417,3.702
		c-2.344,6.246-4.396,12.77-6.447,19.292v3.128v3.193v0.94l0.049,3.136c0,2.346,1.318,5.183,3.126,5.938
		c0.438,0.055,0.977,0.386,1.367,0.505l1.417,0.509l1.368,0.575l1.514,0.661l0.097,1.878c-12.717,0.77-27.021,2.883-39.463,5.997
		v-0.68v-0.42v-0.422v-0.421l1.416-1.164l1.465-1.164c0.439-0.239,0.978-0.825,1.368-1.131c0.44-0.24,1.123-0.808,1.513-1.122
		c1.71-1.343,3.372-4.441,3.372-6.786v-3.268v-3.271v-1.489v-3.268c-3.224-7.179-6.252-14.588-9.622-21.904l-1.466-3.268
		c-0.391-0.981-1.075-2.092-1.466-3.126c-0.39-1.03-1.074-2.191-1.513-3.22l-1.368-3.19c-1.074-2.57-2.686-4.957-4.64-6.219
		l-1.173-0.716c-0.342-0.178-0.732-0.587-1.075-0.766l-1.17-0.648c-0.295-0.117-0.685-0.583-1.027-0.7v-0.519V204v-0.581
		l0.099-0.342l38.487-0.055l-0.048,0.447v0.453v0.511v0.511c-0.44,0.125-0.93,0.507-1.32,0.567
		c-0.342,0.125-0.928,0.566-1.318,0.627c-0.342,0.124-0.831,0.5-1.222,0.624l-1.221,0.682c-1.075,0.493-2.735,1.348-2.735,2.854
		c0,1.066,0.439,2.142,0.83,3.158c0.684,1.906,1.563,3.955,2.248,5.811l2.198,5.751l2.295,5.755l2.296,5.756l2.1-6.225
		c0.684-1.958,1.515-4.046,2.149-6.026l2.101-6.096c0.683-1.936,1.612-4.005,2.246-5.958c0.341-0.978,0.733-1.826,0.733-2.813
		c0-1.25-1.368-2.056-2.394-2.327c-0.391-0.071-0.978-0.403-1.417-0.537c-0.391-0.068-0.879-0.333-1.27-0.466
		c-0.391-0.068-0.88-0.332-1.318-0.464c-0.392-0.067-0.879-0.394-1.319-0.459l-0.05-0.646v-0.58v-0.519v-0.454L125.454,203.169z"/>
	<path fill-rule="evenodd" clip-rule="evenodd" fill="#008A52" d="M53.313,203.076c0,0.657,0.043,0.94,0.146,1.587
		c-8.492,3.879-9.231,6.707-9.231,17.833l-0.099,7.497v7.504v-0.243v8.206l0.099,24.906l10.241-2.482
		c4.079-1.006,7.047-2.255,8.542-7.964l2.61-10.019l1.221,0.235c-0.515,11.323-0.733,25.333-0.733,25.333
		c-5.479,1.469-31.129,6.797-51.577,16.863l0.099-2.361c11.666-12.563,8.742-21.307,8.742-38.741l-0.049-8.782v-8.241v-1.067v-8.184
		c0-10.251-0.27-15.641-8.938-19.655l-0.098-2.173L53.313,203.076z"/>
	<path fill="none" stroke="#FFFFFF" stroke-width="6.9889" stroke-miterlimit="22.9256" d="M53.313,203.076
		c0,0.657,0.043,0.94,0.146,1.587c-8.492,3.879-9.231,6.707-9.231,17.833l-0.099,7.497v7.504v-0.243v8.206l0.099,24.906
		l10.241-2.482c4.079-1.006,7.047-2.255,8.542-7.964l2.61-10.019l1.221,0.235c-0.515,11.323-0.733,25.333-0.733,25.333
		c-5.479,1.469-31.129,6.797-51.577,16.863l0.099-2.361c11.666-12.563,8.742-21.307,8.742-38.741l-0.049-8.782v-8.241v-1.067v-8.184
		c0-10.251-0.27-15.641-8.938-19.655l-0.098-2.173L53.313,203.076z"/>
	<path fill-rule="evenodd" clip-rule="evenodd" fill="#008A52" d="M266.216,202.937c-0.075,0.839-0.049,1.683-0.049,2.525
		c-3.714,2.13-7.766,4.312-10.503,8.602c-1.221,1.881-2.636,3.989-3.907,5.797l-3.858,5.556c-1.221,1.75-2.637,3.631-3.907,5.304
		c-1.221,1.735-2.541,3.7-3.761,5.294l4.101,8.321c1.321,2.684,2.882,5.889,4.203,8.736c1.367,2.816,2.831,6.113,4.15,9.147
		c1.319,3.008,2.883,6.358,4.201,9.521c4.542,11.006,8.422,12.041,13.58,16.749v0.685v0.635v0.685v0.83
		c-14.608-6.556-35.311-12.9-43.075-14.722c0-0.613-0.001-1.244,0.146-1.844c2.626-0.968,6.543-1.855,6.543-5.51
		c0-1.515-0.781-3.333-1.416-4.694l-1.812-4.099l-1.808-3.785l-1.759-3.723c-0.537-1.199-1.268-2.544-1.758-3.699
		c-0.781,0.926-1.561,2.135-2.294,3.062l-2.295,2.985l-2.2,3.005l-2.245,2.926c-0.734,1.018-2.522,3.081-2.522,4.504
		c0,3.53,3.079,4.278,6.692,7.133c0,0.67,0.005,1.34-0.012,2.01c-9.112-2.452-18.136-3.817-26.999-5.26v-0.48l0.096-0.432v-0.48
		l0.051-0.487c4.296-2.026,8.45-4.212,11.819-7.908c1.27-1.336,3.306-4.06,4.524-5.487l3.808-4.26l3.764-4.464
		c1.268-1.434,2.686-2.987,3.906-4.455c-1.221-2.346-2.539-4.816-3.809-7.081c-1.223-2.227-2.541-4.746-3.811-6.941l-3.808-6.564
		c-1.223-2.144-2.542-4.468-3.763-6.462c-4.297-7.168-4.688-6.575-11.723-9.127v-0.6v-0.48v-0.479l0-0.422l41.712-0.009v0.433v0.431
		v0.43v0.539c-3.908,1.326-8.986,2.746-8.986,5.611c0,0.882,0.391,1.536,0.781,2.183l1.857,3.512l1.854,3.693
		c0.586,1.169,1.368,2.543,1.905,3.705l1.906,3.83l2.393-3.637l2.395-3.752l2.391-3.867c0.783-1.188,1.759-2.536,2.492-3.764
		c0.489-0.799,1.173-1.55,1.173-2.649c0-3.037-2.735-3.64-5.033-4.576v-0.583l0.049-0.586v-0.529l0.079-0.427L266.216,202.937z"/>
	<path fill="none" stroke="#FFFFFF" stroke-width="6.9889" stroke-miterlimit="22.9256" d="M266.216,202.937
		c-0.075,0.839-0.049,1.683-0.049,2.525c-3.714,2.13-7.766,4.312-10.503,8.602c-1.221,1.881-2.636,3.989-3.907,5.797l-3.858,5.556
		c-1.221,1.75-2.637,3.631-3.907,5.304c-1.221,1.735-2.541,3.7-3.761,5.294l4.101,8.321c1.321,2.684,2.882,5.889,4.203,8.736
		c1.367,2.816,2.831,6.113,4.15,9.147c1.319,3.008,2.883,6.358,4.201,9.521c4.542,11.006,8.422,12.041,13.58,16.749v0.685v0.635
		v0.685v0.83c-14.608-6.556-35.311-12.9-43.075-14.722c0-0.613-0.001-1.244,0.146-1.844c2.626-0.968,6.543-1.855,6.543-5.51
		c0-1.515-0.781-3.333-1.416-4.694l-1.812-4.099l-1.808-3.785l-1.759-3.723c-0.537-1.199-1.268-2.544-1.758-3.699
		c-0.781,0.926-1.561,2.135-2.294,3.062l-2.295,2.985l-2.2,3.005l-2.245,2.926c-0.734,1.018-2.522,3.081-2.522,4.504
		c0,3.53,3.079,4.278,6.692,7.133c0,0.67,0.005,1.34-0.012,2.01c-9.112-2.452-18.136-3.817-26.999-5.26v-0.48l0.096-0.432v-0.48
		l0.051-0.487c4.296-2.026,8.45-4.212,11.819-7.908c1.27-1.336,3.306-4.06,4.524-5.487l3.808-4.26l3.764-4.464
		c1.268-1.434,2.686-2.987,3.906-4.455c-1.221-2.346-2.539-4.816-3.809-7.081c-1.223-2.227-2.541-4.746-3.811-6.941l-3.808-6.564
		c-1.223-2.144-2.542-4.468-3.763-6.462c-4.297-7.168-4.688-6.575-11.723-9.127v-0.6v-0.48v-0.479l0-0.422l41.712-0.009v0.433v0.431
		v0.43v0.539c-3.908,1.326-8.986,2.746-8.986,5.611c0,0.882,0.391,1.536,0.781,2.183l1.857,3.512l1.854,3.693
		c0.586,1.169,1.368,2.543,1.905,3.705l1.906,3.83l2.393-3.637l2.395-3.752l2.391-3.867c0.783-1.188,1.759-2.536,2.492-3.764
		c0.489-0.799,1.173-1.55,1.173-2.649c0-3.037-2.735-3.64-5.033-4.576v-0.583l0.049-0.586v-0.529l0.079-0.427L266.216,202.937z"/>
	<path fill-rule="evenodd" clip-rule="evenodd" fill="#008A52" d="M183.818,268.317V264.6c0-63.111-1.659-54.955,10.159-59.806
		c0-0.614,0-1.173,0-1.787l-25.493,0.077v0.318v0.384v0.387l0.098,0.513c0.39,0.064,0.975,0.448,1.367,0.575l1.464,0.639
		l1.466,0.638l1.514,0.701c4.836,2.226,3.517,14.869,3.517,31.338c-8.596-12.047-16.949-23.664-25.25-35.041l-26.326-0.383v0.39
		v0.454v0.459v0.585c10.158,3.173,9.622,0.642,9.622,25.379c0,5.196-0.196,10.458-0.196,15.652l-0.049,2.535l-0.098,2.468
		l-0.098,2.534l-0.048,2.6c0,1.626-0.954,3.563-2.297,4.47c-2.348,1.585-6.006,3.66-6.496,3.805l-0.097,1.892
		c4.079-0.375,20.191-0.73,25.351-0.376l0.146-1.811c0,0-3.036-1.283-4.396-2.11c-2.255-1.373-4.787-3.902-4.787-6.818l-0.149-3.095
		l-0.097-2.263l-0.05-2.329l-0.097-2.265c0-3.37-0.244-6.601-0.244-9.97v-10.624c6.788,8.273,23.769,31.45,31.193,42.532
		C173.448,267.246,181.067,267.992,183.818,268.317z"/>
	<path fill="none" stroke="#FFFFFF" stroke-width="6.9889" stroke-miterlimit="22.9256" d="M183.818,268.317V264.6
		c0-63.111-1.659-54.955,10.159-59.806c0-0.614,0-1.173,0-1.787l-25.493,0.077v0.318v0.384v0.387l0.098,0.513
		c0.39,0.064,0.975,0.448,1.367,0.575l1.464,0.639l1.466,0.638l1.514,0.701c4.836,2.226,3.517,14.869,3.517,31.338
		c-8.596-12.047-16.949-23.664-25.25-35.041l-26.326-0.383v0.39v0.454v0.459v0.585c10.158,3.173,9.622,0.642,9.622,25.379
		c0,5.196-0.196,10.458-0.196,15.652l-0.049,2.535l-0.098,2.468l-0.098,2.534l-0.048,2.6c0,1.626-0.954,3.563-2.297,4.47
		c-2.348,1.585-6.006,3.66-6.496,3.805l-0.097,1.892c4.079-0.375,20.191-0.73,25.351-0.376l0.146-1.811c0,0-3.036-1.283-4.396-2.11
		c-2.255-1.373-4.787-3.902-4.787-6.818l-0.149-3.095l-0.097-2.263l-0.05-2.329l-0.097-2.265c0-3.37-0.244-6.601-0.244-9.97v-10.624
		c6.788,8.273,23.769,31.45,31.193,42.532C173.448,267.246,181.067,267.992,183.818,268.317z"/>
	<path fill-rule="evenodd" clip-rule="evenodd" fill="#008A52" d="M125.453,203.171l-0.098,0.41v0.549v0.547v0.548l-1.173,0.404
		l-1.123,0.403l-1.173,0.331l-1.025,0.467c-2.149,0.722-3.223,3.738-4.103,6.072c-0.391,1.196-1.076,2.455-1.514,3.578l-1.368,3.687
		c-0.391,1.185-1.074,2.55-1.464,3.726c-0.392,1.177-0.978,2.472-1.417,3.703c-2.343,6.246-4.395,12.77-6.447,19.292v3.128v3.193
		v0.94l0.049,3.136c0,2.346,1.318,5.183,3.126,5.938c0.438,0.054,0.977,0.386,1.367,0.505l1.417,0.509l1.368,0.575l1.514,0.661
		c0,0.632-0.048,1.262,0.097,1.879c-12.815,0.593-27.021,2.883-39.463,5.997v-0.68v-0.421v-0.421v-0.421l1.416-1.164l1.465-1.164
		c0.439-0.239,0.978-0.825,1.368-1.131c0.44-0.24,1.123-0.807,1.513-1.121c1.71-1.344,3.371-4.441,3.371-6.787v-3.268v-3.271v-1.489
		v-3.269c-3.224-7.178-6.252-14.588-9.622-21.904l-1.466-3.269c-0.391-0.981-1.075-2.092-1.465-3.126
		c-0.39-1.03-1.074-2.192-1.513-3.22l-1.368-3.19c-1.074-2.57-2.686-4.957-4.64-6.219l-1.172-0.716
		c-0.342-0.177-0.732-0.586-1.075-0.766l-1.171-0.647c-0.294-0.117-0.685-0.583-1.027-0.7v-0.519v-0.462v-0.581l0.098-0.342
		l38.488-0.055l-0.048,0.447v0.453v0.511v0.511c-0.44,0.125-0.93,0.507-1.319,0.567c-0.343,0.125-0.928,0.565-1.318,0.627
		c-0.342,0.124-0.831,0.5-1.222,0.624l-1.221,0.682c-1.074,0.493-2.735,1.348-2.735,2.854c0,1.066,0.439,2.142,0.83,3.158
		c0.684,1.906,1.563,3.955,2.248,5.811l2.198,5.751l2.295,5.755l2.296,5.756l2.1-6.225c0.684-1.958,1.515-4.046,2.149-6.025
		l2.1-6.096c0.683-1.937,1.612-4.006,2.246-5.958c0.341-0.978,0.733-1.826,0.733-2.813c0-1.25-1.368-2.056-2.394-2.328
		c-0.39-0.071-0.977-0.402-1.417-0.537c-0.39-0.068-0.879-0.333-1.27-0.466c-0.391-0.068-0.88-0.331-1.319-0.464
		c-0.392-0.066-0.879-0.394-1.319-0.459l-0.05-0.646v-0.58v-0.519v-0.454L125.453,203.171z"/>
	<path fill-rule="evenodd" clip-rule="evenodd" fill="#008A52" d="M53.313,202.695v0.493l0.048,0.371v0.491l0.098,0.615
		l-1.319,0.603c-0.39,0.178-0.928,0.658-1.367,0.774c-0.391,0.116-0.88,0.594-1.319,0.708c-0.391,0.173-0.879,0.646-1.271,0.82
		c-4.151,2.154-3.956,2.516-3.956,14.928l-0.099,7.497v7.504v-0.243v8.206l0.099,24.906l10.241-2.482
		c4.079-1.006,7.047-2.255,8.542-7.964l2.61-10.02c0,0,1.215,0.377,1.221,0.235c-0.515,11.323-0.733,25.332-0.733,25.332
		c-5.519,0.959-31.129,6.797-51.577,16.863c0-0.788,0.027-1.576,0.099-2.361c11.666-12.563,8.743-21.308,8.743-38.741l-0.049-8.782
		v-8.241v-1.066v-8.185c0-11.987,0.146-14.551-4.64-17.192c-0.342-0.113-0.733-0.54-1.075-0.704
		c-0.342-0.111-0.732-0.379-1.075-0.541c-0.341-0.11-0.732-0.53-1.073-0.69c-0.343-0.109-0.734-0.371-1.075-0.528
		c-0.115-0.848-0.098-1.704-0.098-2.556L53.313,202.695z"/>
	<path fill-rule="evenodd" clip-rule="evenodd" fill="#008A52" d="M266.216,202.938c-0.075,0.84-0.049,1.684-0.049,2.525
		c-4.017,2.305-7.931,4.571-10.503,8.603c-1.221,1.881-2.636,3.989-3.907,5.797l-3.858,5.556c-1.221,1.75-2.637,3.631-3.907,5.305
		c-1.221,1.734-2.541,3.7-3.761,5.294l4.101,8.321c1.321,2.683,2.882,5.889,4.203,8.736c1.367,2.817,2.832,6.114,4.151,9.148
		c1.319,3.008,2.883,6.358,4.201,9.52c4.542,11.006,8.422,12.041,13.581,16.749v0.685v0.636v0.685v0.83
		c-14.608-6.556-35.311-12.979-43.075-14.722v-0.55l0.047-0.394v-0.498l0.099-0.403c2.734-1.007,6.543-1.88,6.543-5.51
		c0-1.515-0.781-3.333-1.416-4.694l-1.812-4.099l-1.808-3.785l-1.759-3.722c-0.537-1.2-1.268-2.544-1.758-3.7
		c-0.781,0.926-1.561,2.135-2.294,3.062l-2.295,2.985l-2.2,3.005l-2.245,2.926c-0.734,1.018-2.522,3.08-2.522,4.503
		c0,3.53,3.079,4.278,6.692,7.133c0,0.67,0.091,1.19-0.012,2.011c-8.645-2.158-18.136-3.817-26.999-5.26
		c0-0.614,0.083-1.266,0.146-1.881c4.297-2.026,8.449-4.212,11.819-7.907c1.27-1.336,3.306-4.061,4.524-5.487l3.809-4.26
		l3.763-4.464c1.268-1.433,2.686-2.986,3.906-4.455c-1.221-2.346-2.539-4.816-3.809-7.081c-1.223-2.227-2.541-4.745-3.811-6.941
		l-3.808-6.565c-1.223-2.143-2.542-4.468-3.763-6.462c-4.297-7.168-4.688-6.574-11.723-9.127v-0.6v-0.48v-0.479v-0.418l41.711-0.013
		v0.433v0.431v0.43v0.539c-3.908,1.325-8.986,2.746-8.986,5.611c0,0.883,0.391,1.536,0.781,2.184l1.857,3.512l1.854,3.693
		c0.586,1.17,1.368,2.543,1.905,3.706l1.906,3.83l2.393-3.637l2.395-3.752l2.391-3.867c0.783-1.188,1.759-2.535,2.492-3.763
		c0.488-0.799,1.173-1.55,1.173-2.649c0-3.037-2.735-3.64-5.033-4.576v-0.583l0.049-0.586v-0.529l0.098-0.531L266.216,202.938z"/>
	<path fill-rule="evenodd" clip-rule="evenodd" fill="#008A52" d="M183.817,268.318v-3.717c0-63.111-1.659-54.955,10.159-59.806
		v-0.569v-0.511v-0.44v-0.321l-25.493,0.131v0.318v0.384v0.387l0.098,0.513c0.39,0.064,0.975,0.448,1.367,0.575l1.464,0.639
		l1.466,0.638l1.514,0.7c4.836,2.226,3.517,14.869,3.517,31.338c-8.596-12.046-16.949-23.663-25.25-35.041l-26.326-0.383v0.39v0.454
		v0.459v0.585c10.158,3.173,9.622,0.642,9.622,25.379c0,5.196-0.196,10.458-0.196,15.652l-0.049,2.535l-0.098,2.468l-0.098,2.534
		l-0.048,2.6c0,1.626-0.953,3.563-2.296,4.47c-2.348,1.585-6.007,3.66-6.496,3.805l-0.098,1.891
		c4.079-0.374,20.191-0.73,25.352-0.376l0.146-1.811c0,0-3.036-1.283-4.396-2.11c-2.255-1.373-4.787-3.902-4.787-6.817l-0.149-3.095
		l-0.096-2.263l-0.05-2.329l-0.097-2.265c0-3.37-0.244-6.601-0.244-9.97v-10.623c6.788,8.273,23.769,31.45,31.193,42.531
		C173.448,267.248,181.066,267.994,183.817,268.318z"/>
	<path fill-rule="evenodd" clip-rule="evenodd" d="M93.025,135.441c0,0-4.225,12.486-16.622,12.856c0,0,4.178-3.756,4.133-8.031
		c0,0-2.993,1.593-6.447,1.447l0.329-5.7c0,0,3.5,2.367,10.399-1.57c0,0,1.976,3.523-1.082,7.661
		C83.734,142.104,90.591,138.347,93.025,135.441z"/>
	<polygon fill-rule="evenodd" clip-rule="evenodd" fill="#FFFFFF" points="53.869,170.681 20.123,159.765 13.976,174.944 
		51.006,186.212 	"/>
	<polygon fill="none" stroke="#000000" stroke-width="2.9999" stroke-miterlimit="22.9256" points="53.869,170.681 20.123,159.765 
		13.976,174.944 51.006,186.212 	"/>
	<path fill-rule="evenodd" clip-rule="evenodd" d="M245.874,29.647c0,0-5.971,3.334-4.953,12.054
		c1.008,8.62-4.15,20.353-15.838,22.902c0,0-5.128-23.074-39.748-29.205c-42.272-7.219-49.459,16.093-76.564,12.322
		c-18.66-2.599-21.619-17.7-21.619-17.7c-1.952-9.852,0.843-13.425-4.721-21.065c0,0,2.9,5.433,2.968,10.005
		c0.064,4.539-1.182,27.706,12.146,42.041c0,0-2.081,1.963-1.557,7.015c0,0,2.9-3.429,6.825-2.514c0,0-4.242,7.052-4.029,13.152
		c0,0,2.955-4.624,8.632-5.523c0,0-2.966,2.873-3.417,7.034c0,0,3.241-1.323,5.327-1.603c0,0-10.251,6.446-8.886,23.991
		c0,0,1.828-3.329,4.355-5.143c0,0-3.428,6.712-3.213,14.835c0,0,3.796-5.77,7.422-9.008c0,0-8.687,13.317-1.032,30.52
		c0,0,1.259-5.416,3.513-10.361c0,0-2.71,17.035,26.127,34.552c0,0-5.284-6.528-8.621-13.969c0,0,3.08,2.976,8.995,5.855
		c0,0-4.268-5.135-5.954-11.244c0,0,2.156,1.674,7.655,3.839c0,0-3.706-5.121-4.495-7.624c0,0,3.362,2.488,7.478,3.979
		c0,0-1.238-1.276-3.61-5.712c0,0,1.708,1.658,4.704,3.044c0,0,0.149-1.262-1.077-3.103c0,0,4.201,2.214,5.571,6.696
		c1.363,4.456,0.206,7.313,2.085,9.736c0,0,0.3-2.673,1.164-4.448c0,0-0.46,4.064,3.073,6.773c0,0-0.436-1.788-0.186-2.937
		c0,0,2.654,3.615,10.502,5.201c0,0-1.611,0.929-1.516,2.033c0,0,3.069-1.418,4.246-1.388c0,0-1.522,1.085-1.686,1.792
		c0,0,4.352-1.449,7.171-1.435c2.831,0.017,9.702,0.005,13.496-7.921c0,0,1.299,1.198,0.186,4.161c0,0,3.241-1.011,3.732-3.22
		c0,0-3.005,13.729-7.419,16.388c0,0,23.67-13.831,27.638-29.853c0,0,1.41,1.659,1.292,4.573c0,0,7.237-7.763,7.513-20.039
		c0,0,1.882,0.591,2.38,3.644c0,0,5.144-6.843,0.871-15.873c0,0,4.197-0.671,4.888,2.758c0,0,3.589-11.166-0.068-23.263
		c0,0,1.969,0.341,3.646,2.938c0,0,1.443-2.5,0.808-5.429c0,0,2.009-0.301,2.553,1.209c0,0,0.721-4.218,2.677-8.361
		c1.976-4.186,9.421-20.516,4.779-35.804C240.259,34.948,245.874,29.647,245.874,29.647z"/>
	<path fill-rule="evenodd" clip-rule="evenodd" fill="#CBCCCE" d="M221.871,69.123c0,0,13.243-1.653,18.652-11.392
		c0,0-1.322,14.274-18.301,23.929c0,0,2.174,4.792,1.749,14.649c0,0-1.93-2.381-4.327-3.798c0,0,2.932,5.052,2.816,10
		c0,0-3.379-8.633-12.165-8.673c4.883,2.002,6.89,7.248,6.89,7.248c-4.021-2.41-6.918-1.731-6.918-1.731
		c6.407,4.367,10.004,11.204,10.168,14.227c0,0-2.454-4.773-6.281-6.763c0,0,3.29,4.337,1.835,10.764c0,0-1.229-5.876-6.305-7.988
		c0,0,3.689,9.505,3.304,18.623c0,0-1.903-5.147-4.594-7.753c0,0,1.862,7.603-4.469,18.827c0,0,2.355-13.898-0.588-21.887
		c0,0,1.348,14.608-7.457,29.28c0,0,1.615-7.227,1.197-10.463c0,0-1.425,3.677-3.508,5.943c0,0,2.021-8.438,1.1-12.029
		c0,0-1.264,5.322-3.731,7.458c0,0-0.694-1.801,0.323-4.878c0,0-1.739,2.174-3.095,5.483c-1.348,3.284-3.56,12.507-13.07,13.127
		c-9.354,0.61-10.559-0.902-13.673-2.424c-3.106-1.517-5.829-6.273-5.829-6.273s-1.164,1.066-1.531,2.343
		c0,0-0.932-4.015,1.97-8.222c0,0-3.008,1.589-3.905,3.544c0,0-0.745-2.338-2.426-4.694c-1.684-2.358-1.027-11.575,3.704-16.767
		c0,0-4.277,2.104-5.699,6.131c0,0-0.001-6.774,4.535-14.126c0,0-11.803,11.203-11.131,19.873c0,0-14.583-10.93-1.318-33.395
		c0,0-14.472,14.205-11.162,32.749c0,0-4.292-7.884-3.545-16.28c0,0-4.264,10.458,1.286,22.917c0,0-3.767-3.326-5.153-7.941
		c0,0-0.502,9.77,2.536,14.758c0,0-7.979-9.189-5.962-23.539c2.074-14.759,17.412-30.495,17.412-30.495
		s-21.886,15.817-26.061,31.431c0,0-3.021-19.573,28.949-45.265c0,0-21.757,12.077-30.295,23.467c0,0,1.801-8.539,6.34-13.247
		c0,0-5.734,3.111-9.057,7.012c0,0,2.347-11.527,14.533-18.46c0,0-4.761-0.688-9.513,1.092c0,0,3.74-9.837,10.057-15.448
		c0,0-18.215,3.867-26.404-13.221c0,0,14.086,10.886,36.439,2.276c0,0-0.975,7.547,2.28,12.494c0,0-0.751-8.671,2.715-14.544
		c0,0-0.319,4.861,1.687,8.651c0,0,0.353-5.853,2.764-10.379c0,0,0.175,3.052,1.495,5.05c0,0,0.226-4.893,2.878-7.385
		c0,0,8.64-3.754,15.77-4.757c0,0,0.286,4.176,3.179,6.688c0,0,2.599-7.34,8.267-7.117c5.711,0.227,5.065,0.297,8.621,4.061
		c3.554,3.763,3.249,9.404,3.249,9.404s1.768-5.578-1.207-12.276c0,0,5.058,1.04,5.191,9.759c0,0,2.165-4.432,1.53-8.149
		c0,0,15.458,4.125,15.183,7.786c-0.276,3.639-0.417,4.165-1.549,6.276c0,0,4.371-1.938,7.324-5.432
		C209.57,49.247,218.984,58.262,221.871,69.123z"/>
	<path fill-rule="evenodd" clip-rule="evenodd" d="M190.886,52.975c0,0,7.723,3.629,9.658,12.166c0,0,1.071-1.194,3.862-1.283
		C204.405,63.857,198.451,54.559,190.886,52.975z"/>
	<path fill-rule="evenodd" clip-rule="evenodd" d="M205.32,63.915c0,0,2.14,0.086,3.902,0.858c0,0-1.353-5.226-7.363-9.263
		C201.859,55.511,204.376,60.209,205.32,63.915z"/>
	<path fill-rule="evenodd" clip-rule="evenodd" d="M210.245,65.027c0,0,2.28,1.082,3.386,2.073c0,0-1.477-4.239-4.104-7.467
		C209.527,59.634,210.573,62.5,210.245,65.027z"/>
	<path fill-rule="evenodd" clip-rule="evenodd" d="M194.96,72.702c0,0,1.518-0.228,2.433-1.701c0.915-1.479,3.939-5.452,9.4-4.566
		c5.498,0.89,4.103,4.666,11.392,3.347c0,0-1.429,2.075-5.401,2.489c0,0-3.025,4.617-8.173,4.035
		c-5.11-0.579-4.378-3.902-6.552-3.25C195.73,73.753,194.96,72.702,194.96,72.702z"/>
	<path fill-rule="evenodd" clip-rule="evenodd" fill="#FFFFFF" d="M210.873,71.929l-0.943-0.479c0,0-2.723,2.076-5.003,1.333
		c-2.271-0.742-2.299-3.363-2.299-3.363l-1.888,0.774c0,0,0.305,3.5,4.042,4.053C208.535,74.801,210.873,71.929,210.873,71.929z"/>
	<path fill-rule="evenodd" clip-rule="evenodd" fill="#FFFFFF" d="M206.064,70.321c-0.097,0.387,0.185,0.752,0.63,0.815
		c0.443,0.065,0.885-0.196,0.98-0.581c0.098-0.386-0.183-0.751-0.627-0.814C206.601,69.675,206.161,69.938,206.064,70.321z"/>
	<path fill-rule="evenodd" clip-rule="evenodd" d="M214.531,73.316c0,0,2.151,0.875,3.662-0.192c0,0-1.08,4.383-8.389,5.776
		C209.804,78.9,213.089,77.533,214.531,73.316z"/>
	<path fill-rule="evenodd" clip-rule="evenodd" d="M169.037,47.84c0,0-3.454,5.282-3.811,11.84c0,0-2.232-0.608-4.68-0.375
		C160.547,59.306,163.799,51.869,169.037,47.84z"/>
	<path fill-rule="evenodd" clip-rule="evenodd" d="M159.059,59.385c0,0-2.771,0.557-4.135,1.377c0,0,2.105-6.979,6.607-11.856
		C161.532,48.905,159.346,55.022,159.059,59.385z"/>
	<path fill-rule="evenodd" clip-rule="evenodd" d="M153.54,61.359c0,0-1.566,1.25-3.688,0.705c0,0,1.653-5.114,4.89-8.558
		C154.742,53.507,152.691,58.288,153.54,61.359z"/>
	<path fill-rule="evenodd" clip-rule="evenodd" d="M172.843,70.333c0,0-1.754-0.516-2.412-2.262
		c-0.658-1.749-3.089-6.524-9.761-6.473c-6.603,0.053-6.072,4.269-13.978,1.679c0,0,1.03,2.406,5.414,3.506
		c0,0,2.156,5.383,8.27,5.681c6.168,0.302,6.271-3.384,8.658-2.303C171.607,71.326,172.843,70.333,172.843,70.333z"/>
	<path fill-rule="evenodd" clip-rule="evenodd" fill="#FFFFFF" d="M154.387,66.741l1.221-0.343c0,0,2.553,2.662,5.412,2.267
		c2.875-0.395,3.667-3.19,3.667-3.19l1.401,1.955c0,0-0.855,3.39-5.393,3.317C156.188,70.675,154.387,66.741,154.387,66.741z"/>
	<path fill-rule="evenodd" clip-rule="evenodd" fill="#FFFFFF" d="M163.473,65.863c0.001,0.424-0.43,0.764-0.966,0.759
		c-0.538-0.007-0.974-0.357-0.975-0.783c-0.003-0.425,0.431-0.768,0.966-0.762C163.036,65.084,163.472,65.436,163.473,65.863z"/>
	<path fill-rule="evenodd" clip-rule="evenodd" d="M150.27,67.908c0,0-2.676,0.549-4.079-0.818c0,0,2.171,5.674,12.506,7.308
		C158.697,74.397,152.392,71.903,150.27,67.908z"/>
	<path fill-rule="evenodd" clip-rule="evenodd" d="M184.499,81.65c0,0-1.478,1.453-0.797,3.546c0,0-7.057-5.687-14.259-9.039
		C169.442,76.158,176.196,75.368,184.499,81.65z"/>
	<path fill-rule="evenodd" clip-rule="evenodd" d="M210.665,90.62c0,0,0.804-2.037,0.745-3.91c0,0,4.104,2.5,6.287,6.716
		C217.696,93.426,213.314,90.839,210.665,90.62z"/>
	<path fill-rule="evenodd" clip-rule="evenodd" d="M189.337,82.772c0,0,8.464-1.181,17.629,2.587
		c1.825,0.752,1.833,0.919,1.42,2.666c-0.67,2.829-2.01,2.257-3.843,3.017c-1.335,0.555-2.828,1.275-4.177,2.8
		c-1.785,2.022-1.901,2.289-4.083,1.724c-1.894-0.49-2.195-1.229-2.905-3.424c-0.712-2.204-6.687-4.328-6.311-6.704
		C187.374,83.507,187.316,82.921,189.337,82.772z"/>
	<path fill-rule="evenodd" clip-rule="evenodd" d="M204.905,82.738c0,0,1.998,0.372,3.663,1.756c0,0-1.382-5.537-10.643-9.054
		c0,0-2.052,0.225-3.231-0.282C194.694,75.158,203.587,78.75,204.905,82.738z"/>
	<path fill-rule="evenodd" clip-rule="evenodd" d="M171.888,72.746c0,0,1.427,1.772,4.005,1.384c2.59-0.388,7.622-1.52,14.798-0.11
		c0,0-6.317-3.51-14.285-1.848C173.874,73.172,171.888,72.746,171.888,72.746z"/>
	<path fill-rule="evenodd" clip-rule="evenodd" d="M170.353,63.322c0,0,0.591,0.708,1.731,3.402c0,0,3.071-8.026,5.72-10.396
		C177.804,56.327,172.374,59.816,170.353,63.322z"/>
	<path fill-rule="evenodd" clip-rule="evenodd" d="M213.837,104.833l-1.97,2.339c0,0-2.302-3.045-5.662-3.408
		C206.206,103.765,210.142,103.255,213.837,104.833z"/>
	<path fill-rule="evenodd" clip-rule="evenodd" d="M163.493,108.354c-5.112-3.247-5.254-8.3-5.254-8.3
		c7.989,4.322,19.937,3.314,19.937,3.314c-5.14,1.846-13.244,2.102-13.244,2.102s4.451,3.391,12.229,1.694
		c7.896-1.724,13.941-1.147,13.941-1.147c2.513-2.431,3.533-8.47,3.533-8.47c1.036,0.765,3.193,0.868,3.193,0.868
		c-1.032,5.378-2.683,8.548-2.683,8.548c6.584,1.283,14.121,5.1,14.121,5.1l-2.096,2.037c-0.9-0.497-2.339-1.104-2.339-1.104
		c-6.711,4.491-14.137,10.876-16.428,16.171c-2.266,5.233-2.242,12.418-4.922,15.256c-2.658,2.811-5.555,2.542-9.506,1.64
		c-3.434-0.784-4.845,0.714-9.498-0.523c-8.448-2.242-4.639-8.732-7.745-20.043C153.584,114.028,163.493,108.354,163.493,108.354z"
		/>
	<path fill-rule="evenodd" clip-rule="evenodd" fill="#FFFFFF" d="M199.975,111.463c0,0-9.146-3.693-18.343-1.604
		c0,0,2.09,1.61,2.517,2.225c0,0,1.435-1.265,2.289-1.585c0,0,1.17,0.763,1.786,1.617l1.665-1.158c0,0,1.043,1.213,1.525,1.973
		c0,0,1.179-1.244,2.721-1.75c0,0,0.654,5.255-2.687,9.228C191.448,120.408,198.276,116.69,199.975,111.463z"/>
	<path fill-rule="evenodd" clip-rule="evenodd" fill="#FFFFFF" d="M184,134.468c0,0-2.906,5.314-6.37,6.882
		c0,0-1.055-1.245-1.181-2.065c0,0-0.777,0.823-2.245,1.688c0,0-0.763-1.205-1.093-2.063c0,0-1.47,1.535-2.101,2.046
		c0,0-0.766-1.185-1.016-1.937c0,0-1.233,1.38-1.874,1.764c0,0-1.424-1.255-1.56-2.51c0,0-0.867,0.922-2.085,1.457
		c0,0-1.1-5.584-0.584-7.875c0,0-5.707,9.586-1.317,10.055c4.417,0.474,5.269,0.638,6.692,1.069c1.422,0.43,2.92,1.037,5.054,0.438
		c2.141-0.6,6.001,2.262,7.478-0.592C183.283,139.95,184.029,137.63,184,134.468z"/>
	<path fill-rule="evenodd" clip-rule="evenodd" d="M142.443,60.485c0,0-0.656,2.553,1.078,6.256c0,0-15.965,3.497-28.456,15.721
		C115.065,82.462,125.593,67.438,142.443,60.485z"/>
	<path fill-rule="evenodd" clip-rule="evenodd" d="M148.582,75.05c0,0,1.06,1.621,5.433,3.786c0,0-20.212,5.198-32.217,17.056
		C121.797,95.892,130.939,82.195,148.582,75.05z"/>
	<path fill-rule="evenodd" clip-rule="evenodd" d="M157.1,80.428c0,0,1.07,0.894,3.395,1.601c0,0-3.346,1.918-13.63,4.064
		C146.865,86.093,154.023,82.16,157.1,80.428z"/>
	<path fill-rule="evenodd" clip-rule="evenodd" d="M165.195,83.917c0,0-1.407,1.309-2.505,2.988c0,0,5.391-0.679,9.997,3.066
		c0,0,4.234-1.127,8.976,1.197c0,0-3.182-3.059-5.801-4.107l-2.961,0.168C172.899,87.229,170.064,84.943,165.195,83.917z"/>
	<path fill-rule="evenodd" clip-rule="evenodd" d="M179.777,95.202c0,0-4.579-1.438-7.636-2.8c0,0-4.249,0.482-5.711-0.2
		c-1.457-0.685-4.592-4.063-4.592-4.063s-1.026,1.54-1.848,3.304c0,0,2.12,2.595,4.901,4.129c0,0,4.849-0.998,6.981-0.212
		C174.01,96.145,174.92,94.882,179.777,95.202z"/>
	<path fill-rule="evenodd" clip-rule="evenodd" d="M179.823,98.94c0,0-5.25,0.498-7.261-0.03c-2.006-0.527-4.973-1.905-7.847-1.339
		c0,0-3.44-1.912-5.642-3.796c0,0-0.7,2.53-0.751,3.734c2.616,1.941,2.733,1.314,5.414,2.962c0,0,2.917-1.294,9.091,1.34
		C172.826,101.812,178.332,99.859,179.823,98.94z"/>
	<path fill-rule="evenodd" clip-rule="evenodd" d="M154.099,92.114c0,0-0.553,1.55-0.598,3.221c0,0-1.519,0.596-5.706,0.433
		C147.794,95.769,151.727,94.106,154.099,92.114z"/>
	<path fill-rule="evenodd" clip-rule="evenodd" d="M156.662,107.069c0,0-3.178-5.507-3.209-10.066c0,0-4.952,4.285-7.986,4.076
		c0,0,1.112,0.981,7.418,0.599c0,0-4.346,3.395-9.12,4.141c0,0,3.922,0.698,7.758,0.106c0,0-6.818,4.443-10.76,4.74
		c0,0,4.629,0.469,10.231-1.549C156.662,107.069,156.662,107.069,156.662,107.069z"/>
	<polygon fill-rule="evenodd" clip-rule="evenodd" points="42.194,40.267 45.857,37.533 55.406,50.322 67.219,41.502 69.429,44.463 
		53.954,56.018 	"/>
	<polygon fill="none" stroke="#000000" stroke-width="1.0579" stroke-miterlimit="22.9256" points="42.194,40.267 45.857,37.533 
		55.406,50.322 67.219,41.502 69.429,44.463 53.954,56.018 	"/>
	<path fill-rule="evenodd" clip-rule="evenodd" d="M95.88,27.227L90.853,15.83l-13.802,6.089l5.028,11.396L95.88,27.227z
		 M75.916,18.589l13.244-5.843c3.38-1.491,4.845-1.096,6.336,2.285l4.182,9.479c1.492,3.381,0.795,4.729-2.585,6.221l-13.244,5.842
		c-3.38,1.492-4.845,1.097-6.336-2.283l-4.182-9.48C71.839,21.429,72.535,20.08,75.916,18.589z"/>
	<path fill="none" stroke="#000000" stroke-width="1.0579" stroke-miterlimit="22.9256" d="M95.88,27.227L90.853,15.83
		l-13.802,6.089l5.028,11.396L95.88,27.227z M75.916,18.589l13.244-5.843c3.38-1.491,4.845-1.096,6.336,2.285l4.182,9.479
		c1.492,3.381,0.795,4.729-2.585,6.221l-13.244,5.842c-3.38,1.492-4.845,1.097-6.336-2.283l-4.182-9.48
		C71.839,21.429,72.535,20.08,75.916,18.589z"/>
	<path fill-rule="evenodd" clip-rule="evenodd" d="M113.044,5.075l3.082-0.507l15.522,9.186c0.894,0.509,1.757,1.062,2.563,1.741
		c-0.378-1.598-0.639-2.713-0.738-3.314l-1.673-10.187l4.06-0.667l3.186,19.396l-3.082,0.507l-16.216-9.651
		c-0.644-0.396-1.25-0.798-1.875-1.313c0.397,1.478,0.602,2.487,0.694,3.051l1.723,10.487l-4.06,0.667L113.044,5.075z"/>
	<path fill="none" stroke="#000000" stroke-width="1.0579" stroke-miterlimit="22.9256" d="M113.044,5.075l3.082-0.507l15.522,9.186
		c0.894,0.509,1.757,1.062,2.563,1.741c-0.378-1.598-0.639-2.713-0.738-3.314l-1.673-10.187l4.06-0.667l3.186,19.396l-3.082,0.507
		l-16.216-9.651c-0.644-0.396-1.25-0.798-1.875-1.313c0.397,1.478,0.602,2.487,0.694,3.051l1.723,10.487l-4.06,0.667L113.044,5.075z
		"/>
	<path fill-rule="evenodd" clip-rule="evenodd" d="M165.596,17.343c5.771,0.479,8.775-0.725,9.178-5.584
		c0.331-3.986-1.657-6.292-5.947-6.647l-8.086-0.67l-1.029,12.413L165.596,17.343z M156.475,0.571l12.604,1.045
		c7.327,0.607,10.9,4.535,10.396,10.609c-0.305,3.682-2.151,6.587-5.023,8.031c-1.996,1.019-4.682,1.141-8.174,0.852l-11.426-0.948
		L156.475,0.571z"/>
	<path fill="none" stroke="#000000" stroke-width="1.0579" stroke-miterlimit="22.9256" d="M165.596,17.343
		c5.771,0.479,8.775-0.725,9.178-5.584c0.331-3.986-1.657-6.292-5.947-6.647l-8.086-0.67l-1.029,12.413L165.596,17.343z
		 M156.475,0.571l12.604,1.045c7.327,0.607,10.9,4.535,10.396,10.609c-0.305,3.682-2.151,6.587-5.023,8.031
		c-1.996,1.019-4.682,1.141-8.174,0.852l-11.426-0.948L156.475,0.571z"/>
	<path fill-rule="evenodd" clip-rule="evenodd" d="M211.877,27.964l4.067-11.773l-14.258-4.926l-4.067,11.774L211.877,27.964z
		 M203.119,8.052l13.682,4.727c3.493,1.206,4.298,2.492,3.091,5.985l-3.383,9.792c-1.207,3.493-2.634,4.008-6.126,2.801
		l-13.682-4.726c-3.492-1.206-4.297-2.492-3.091-5.984l3.383-9.793C198.199,7.36,199.626,6.846,203.119,8.052z"/>
	<path fill="none" stroke="#000000" stroke-width="1.0579" stroke-miterlimit="22.9256" d="M211.877,27.964l4.067-11.773
		l-14.258-4.926l-4.067,11.774L211.877,27.964z M203.119,8.052l13.682,4.727c3.493,1.206,4.298,2.492,3.091,5.985l-3.383,9.792
		c-1.207,3.493-2.634,4.008-6.126,2.801l-13.682-4.726c-3.492-1.206-4.297-2.492-3.091-5.984l3.383-9.793
		C198.199,7.36,199.626,6.846,203.119,8.052z"/>
	<path fill-rule="evenodd" clip-rule="evenodd" d="M239.549,23.414l2.604,1.725l5.139,17.288c0.31,0.982,0.566,1.975,0.696,3.02
		c0.809-1.429,1.376-2.424,1.712-2.932l5.698-8.608l3.431,2.271l-10.85,16.39l-2.605-1.724l-5.331-18.101
		c-0.203-0.729-0.375-1.436-0.483-2.239c-0.714,1.354-1.25,2.234-1.565,2.71l-5.866,8.862l-3.431-2.271L239.549,23.414z"/>
	<path fill="none" stroke="#000000" stroke-width="1.0579" stroke-miterlimit="22.9256" d="M239.549,23.414l2.604,1.725
		l5.139,17.288c0.31,0.982,0.566,1.975,0.696,3.02c0.809-1.429,1.376-2.424,1.712-2.932l5.698-8.608l3.431,2.271l-10.85,16.39
		l-2.605-1.724l-5.331-18.101c-0.203-0.729-0.375-1.436-0.483-2.239c-0.714,1.354-1.25,2.234-1.565,2.71l-5.866,8.862l-3.431-2.271
		L239.549,23.414z"/>
	<path fill-rule="evenodd" clip-rule="evenodd" fill="#FFFFFF" d="M173.001,111.255c0,0-2.374-0.17-3.834-0.768
		c0,0-0.273,4.436,2.374,7.933C171.541,118.421,171.175,114.326,173.001,111.255z"/>
	<path fill-rule="evenodd" clip-rule="evenodd" fill="#D0382B" d="M163.972,116.575c0.232,0.981,0.467,2.124,0.695,3.451
		c1.315,7.628-4.032,11.746,9.45,14.156c13.717,2.454,11.341-11.655,11.251-14.91c-0.088-3.272,1.46-6.911,1.46-6.911l-3.403,1.906
		c-0.464-0.825-3.284-3.695-3.284-3.695c-3.27,0.94-6.04,0.736-6.04,0.736c-2.402,4.605-0.929,10.323-0.929,10.323
		c-6.214-4.387-5.287-11.403-5.287-11.403S163.708,111.659,163.972,116.575z"/>
	<path fill-rule="evenodd" clip-rule="evenodd" d="M177.98,112.667c0,0-1.185,0.257-1.913,0.176c0,0-1.516,0.962-1.833,2.802
		c0,0,2.997,7.63,1.88,16.003C176.115,131.647,178.672,125.444,177.98,112.667z"/>
	<polygon points="38.375,173.313 24.169,168.593 24.794,166.702 39,171.422 	"/>
	<path fill-rule="evenodd" clip-rule="evenodd" d="M3.254,169.488c0,0-1.513-4.25,1.026-7.96c3.607-5.273,5.913-11.066,9.698-10.133
		c3.786,0.93,9.268,1.94,10.697,5.107c2.34,5.19,3.071,7.63,3.071,7.63s1.401,2.801-1.732,7.109
		c-3.132,4.307-5.239,7.656-5.239,7.656s-1.388,3.104-6.223,1.822c-4.836-1.282-5.84-1.728-5.84-1.728s-2.409-1.144-3.296-3.234
		C3.896,172.182,3.254,169.488,3.254,169.488z"/>
	<polygon fill-rule="evenodd" clip-rule="evenodd" fill="#FFFFFF" points="21.463,157.003 24.52,165.625 17.729,163.685 
		14.791,154.208 	"/>
	<polygon fill-rule="evenodd" clip-rule="evenodd" fill="#FFFFFF" points="24.007,168.938 17.417,178.564 11.643,176.967 
		17.891,167.25 	"/>
	<polygon fill-rule="evenodd" clip-rule="evenodd" points="379.307,259.214 402.552,267.663 409.47,272.694 407.823,276.286 
		386.945,271.384 389.032,266.254 	"/>
	<polygon fill="none" stroke="#000000" stroke-width="2.9999" stroke-linejoin="round" stroke-miterlimit="22.9256" points="
		379.307,259.214 402.552,267.663 409.47,272.694 407.823,276.286 386.945,271.384 389.032,266.254 	"/>
	<path fill-rule="evenodd" clip-rule="evenodd" d="M294.714,198.941c-4.037-16.569-19.537-31.069-19.537-31.069
		s-9.005-8.01,5.357-5.786c0,0-4.849-13.312-15.357-22.714c-7.125-6.375-14.082-9.258-18.289-11.797l-31.378,56.13
		c0,0,7.833,16.667,19.833,17.333c0,0,2.167,8.25,14.741,24.125l13.5,13.667l31.258-38.792L294.714,198.941z"/>
	<path fill-rule="evenodd" clip-rule="evenodd" fill="#CBCCCE" d="M232.391,120.968c0,0,26.547,12.029,39.786,34.404
		c1.054,1.781-16.5-1-0.5,16.5c1.861,2.035-10.787-2.156-8.5,0c2.706,2.551,14.736,5.045,21.5,13.5c8,10,3.785,9.729,6.234,15.09
		c5.465,11.963-29.4,15.91-29.4,15.91s-3.02,14.709-13.406-13.487c-2.662-7.227-4,7-4,7c-7.642-8.002-4.927-27.013-4.927-27.013
		c-6.167,2.833-6.167,13.167-6.167,13.167s-17.883-3.804-13.883-39.804L232.391,120.968z"/>
	<path fill-rule="evenodd" clip-rule="evenodd" d="M300.808,197.365c0,0-8.099-14.654-23.631-8.994
		c-15.535,5.66-34.524,17.54-29.62,26.625c4.904,9.086,3.878,11.412-1.537,3.488c-5.416-7.921-7.857-4.549-8.522-2.313
		c-0.666,2.233,8.295,15.111,14.952,22.376c6.66,7.261,9.754,16.116,11.085,18.878c1.329,2.763,3.93,9.321,16.681,11.954
		c4.87,1.004,5.916-1.157,5.916-1.157s4.959,3.907,12.887,3.965c7.925,0.055,9.344-0.536,9.396-5.715c0,0,2.467,4.771,10.001,3.549
		c7.539-1.221,9.498-2.064,10.49-5.757c0.992-3.695,1.438-6.891-0.808-9.715c0,0-0.187-3.477-0.632-5.07
		c-2.857-10.231-6.127-14.973-6.127-14.973s2.556-0.389,0.26-4.196c-2.89-4.785-9.058-16.983-13.301-21.072
		c0,0,1.977-0.158-0.491-5.384C305.342,198.625,303.145,197.117,300.808,197.365z"/>
	<path fill="none" stroke="#000000" stroke-width="2.9999" stroke-miterlimit="22.9256" d="M300.808,197.365
		c0,0-8.099-14.654-23.631-8.994c-15.535,5.66-34.524,17.54-29.62,26.625c4.904,9.086,3.878,11.412-1.537,3.488
		c-5.416-7.921-7.857-4.549-8.522-2.313c-0.666,2.233,8.295,15.111,14.952,22.376c6.66,7.261,9.754,16.116,11.085,18.878
		c1.329,2.763,3.93,9.321,16.681,11.954c4.87,1.004,5.916-1.157,5.916-1.157s4.959,3.907,12.887,3.965
		c7.925,0.055,9.344-0.536,9.396-5.715c0,0,2.467,4.771,10.001,3.549c7.539-1.221,9.498-2.064,10.49-5.757
		c0.992-3.695,1.438-6.891-0.808-9.715c0,0-0.187-3.477-0.632-5.07c-2.857-10.231-6.127-14.973-6.127-14.973s2.556-0.389,0.26-4.196
		c-2.89-4.785-9.058-16.983-13.301-21.072c0,0,1.977-0.158-0.491-5.384C305.342,198.625,303.145,197.117,300.808,197.365z"/>
	<path fill-rule="evenodd" clip-rule="evenodd" fill="#0067A6" d="M259.795,231.278c9.181-8.419,21.45-13.562,21.45-13.562
		l-12.47-20.681c-14.408,6.958-16.615,12.728-18.234,14.083C248.804,212.575,259.795,231.278,259.795,231.278z"/>
	<path fill-rule="evenodd" clip-rule="evenodd" fill="#0067A6" d="M297.253,195.215c-3.182-3.422-7.7-7.352-25.135,0.281
		c-0.397,0.174-0.775,0.345-1.153,0.517c2.077,3.604,9.394,16.197,7.377,11.611c-2.34-5.328,20.009-10.994,20.009-10.994
		L297.253,195.215z"/>
	<path fill-rule="evenodd" clip-rule="evenodd" fill="#0067A6" d="M241.2,216.887c0,0,9.871,10.543,11.804,14.019l-0.88,3.651
		C252.124,234.557,237.937,217.2,241.2,216.887z"/>
	<path fill-rule="evenodd" clip-rule="evenodd" fill="#008457" d="M306.229,203.742c-0.425-0.762-1.415-1.998-2.483-3.144
		c-0.246-0.263-1.116-2.319-4.546-1.575c-4.508,0.973-14.646,3.462-16.258,6.245c-1.953,3.372-0.46,5.628,2.848,10.544
		c0,0,5.278-4.894,15.025-8.21C306.875,205.744,307.835,206.606,306.229,203.742z"/>
	<path fill-rule="evenodd" clip-rule="evenodd" fill="#FFFFFF" d="M306.431,212.034c0,0-5.382,0.699-14.331,6.904
		c-4.698,3.257-2.644,5.82-0.146,10.625c2.88,5.553,5.853,11.173,11.104,8.547c8.364-4.187,18.072-4.927,16.098-8.386
		c-1.977-3.458-7.419-12.745-9.156-15.495C308.171,211.336,306.926,211.996,306.431,212.034z"/>
	<path fill-rule="evenodd" clip-rule="evenodd" fill="#008457" d="M320.414,236.981c0,0,8.007,16.885,4.84,19.688
		c-3.125,2.773-11.143,4.72-18.351-4.729c-7.208-9.448-5.896-9.177-5.896-9.177S310.838,237.771,320.414,236.981z"/>
	<path fill-rule="evenodd" clip-rule="evenodd" fill="#0067A6" d="M291.836,253.3c0,0-3.866-0.492-1.992,3.449
		c1.874,3.939,2.125,3.509,8.383,3.576c6.254,0.068,9.368,0.198,8.022-2.22c-1.106-1.985-5.119-5.001-7.434-4.852
		C295.006,253.5,291.836,253.3,291.836,253.3z"/>
	<path fill-rule="evenodd" clip-rule="evenodd" fill="#0067A6" d="M304.292,262.125c-4.043,0.042-11.784-1.18-11.826,0.629
		c-0.042,1.809,1.077,5.611-2.462,6.098c0,0,5.888,3.083,13.168,1.811c2.216-0.389,3.109-2.261,3.131-6.598
		C306.304,264.065,306.646,262.101,304.292,262.125z"/>
	<path fill-rule="evenodd" clip-rule="evenodd" fill="#FFFFFF" d="M287.569,256.559c0,0,3.873,4.575,2.989,8.641
		c-0.887,4.065-2.466,2.341-3.121,1.771C287.437,266.971,288.648,262.332,287.569,256.559z"/>
	<path fill-rule="evenodd" clip-rule="evenodd" fill="#0067A6" d="M325.585,258.645c-7.069,4.674-11.497,0.043-11.479,1.952
		c0.016,1.908,1.357,5.033-1.935,7.405c0,0,3.168,2.207,12.313-0.88c2.129-0.72,2.867-2.896,2.754-7.462
		C327.238,259.66,327.249,257.545,325.585,258.645z"/>
	<path fill-rule="evenodd" clip-rule="evenodd" fill="#FFFFFF" d="M308.683,259.535c-0.185-0.894-2.077-4.022-3.445-5.34
		c0,0,3.837,3.639,6.009,4.752c1.515,0.777,1.373,3.038,1.133,4.541c-0.711,4.424-2.26,2.874-2.897,2.386
		C309.482,265.875,309.024,261.178,308.683,259.535z"/>
	<path fill-rule="evenodd" clip-rule="evenodd" fill="#0067A6" d="M271.966,248.019c0,0-3.641-1.014-1.964,3.389
		c1.67,4.398,1.917,3.975,7.822,4.844c5.906,0.866,8.84,1.399,7.63-1.325c-0.994-2.237-4.71-5.935-6.896-6.068
		C274.957,248.634,271.966,248.019,271.966,248.019z"/>
	<path fill-rule="evenodd" clip-rule="evenodd" fill="#0067A6" d="M283.51,258.922c-3.821-0.47-11.098-2.744-11.181-0.84
		c-0.086,1.904,0.877,6.063-2.476,6.127c0,0,5.486,4.006,12.388,3.586c2.102-0.128,2.992-1.991,3.118-6.567
		C285.36,261.229,285.729,259.196,283.51,258.922z"/>
	<path fill-rule="evenodd" clip-rule="evenodd" fill="#FFFFFF" d="M254.013,237.511l0.716-3.796c0,0,7.629,10.116,8.729,14.484
		c0,0-0.087,3.81-0.847,2.281C261.088,247.401,258.364,242.433,254.013,237.511z"/>
	<path fill-rule="evenodd" clip-rule="evenodd" fill="#FFFFFF" d="M265.085,250.267c0,0,0.641,2.775,2.342-0.659
		c0,0,0.176,2.217,1.375,4.684c0.259,0.538,0.911,0.998,0.935,1.505c0.12,2.573,1.024,10.448-2.655,4.202
		c-0.585-0.992-2.16-3.612-3.073-7.151C264.009,252.849,264.971,251.751,265.085,250.267z"/>
	<path fill-rule="evenodd" clip-rule="evenodd" fill="#FFFFFF" d="M50.177,183.038l-1.585-13.763l242.834,64.096
		c0,0,8.325,13.495,9.461,15.459L50.177,183.038z"/>
	<path fill="none" stroke="#000000" stroke-width="2.9999" stroke-miterlimit="22.9256" d="M50.177,183.038l-1.585-13.763
		l242.834,64.096c0,0,8.325,13.495,9.461,15.459L50.177,183.038z"/>
	<rect x="48.166" y="207.521" transform="matrix(0.968 0.2508 -0.2508 0.968 57.8388 -36.8951)" width="251.066" height="1.993"/>
	<path fill-rule="evenodd" clip-rule="evenodd" d="M27.242,147.919c0,0-6.036-12.636-7.361-16.223
		c-1.303-3.529,5.658-12.659,10.252-14.994c4.661-2.371,25.619-1.956,38.273,3.187c4.735,1.925,5.604,0.665,11.841,18.48
		c0,0,3.081-0.041,3.532,2.033c1.56,6.744,2.188,8.854-0.64,11.661c0,0,8.713,25.077,2.89,32.746c0,0,0.608,4.856-3.582,11.237
		c-1.012,1.543-2.066,2.94-3.087,4.175c-3.385,4.095-7.65,7.822-9.879,8.802c-1.767,0.774-4.152,1.28-7.033,0.606
		c-5.725-0.774-6.353-2.438-6.276-3.744c0,0-2.414,3.294-10.228-0.077c-3.756-1.62-3.822-4.703-3.822-4.703
		s-1.887,1.037-5.209,0.116c-1.474-0.408-3.174-0.884-5.455-2.048c-2.718-1.658-4.956-5.903-7.111-9.382
		c-1.107-2.256-0.676-2.269,0.333-4.95c0,0,2.121-5.176,2.906-4.612c1.582,1.141,2.918,1.359,4.692,0.618
		c1.478-0.777,6.153-6.77,5.574-8.92c-1.542-4.675-6.382-13.295-10.904-20.771c-15.907-8.83-11.002-17.188-8.253-12.483
		C23.844,147.48,25.592,147.637,27.242,147.919z"/>
	<path fill="none" stroke="#000000" stroke-width="1.9998" stroke-miterlimit="22.9256" d="M27.242,147.919
		c0,0-6.036-12.636-7.361-16.223c-1.303-3.529,5.658-12.659,10.252-14.994c4.661-2.371,25.619-1.956,38.273,3.187
		c4.735,1.925,5.604,0.665,11.841,18.48c0,0,3.081-0.041,3.532,2.033c1.56,6.744,2.188,8.854-0.64,11.661
		c0,0,8.713,25.077,2.89,32.746c0,0,0.608,4.856-3.582,11.237c-1.012,1.543-2.066,2.94-3.087,4.175
		c-3.385,4.095-7.65,7.822-9.879,8.802c-1.767,0.774-4.152,1.28-7.033,0.606c-5.725-0.774-6.353-2.438-6.276-3.744
		c0,0-2.414,3.294-10.228-0.077c-3.756-1.62-3.822-4.703-3.822-4.703s-1.887,1.037-5.209,0.116
		c-1.474-0.408-3.174-0.884-5.455-2.048c-2.718-1.658-4.956-5.903-7.111-9.382c-1.107-2.256-0.676-2.269,0.333-4.95
		c0,0,2.121-5.176,2.906-4.612c1.582,1.141,2.918,1.359,4.692,0.618c1.478-0.777,6.153-6.77,5.574-8.92
		c-1.542-4.675-6.382-13.295-10.904-20.771c-15.907-8.83-11.002-17.188-8.253-12.483C23.844,147.48,25.592,147.637,27.242,147.919z"
		/>
	<path fill-rule="evenodd" clip-rule="evenodd" fill="#008457" d="M79.762,153.121c0,0,0.001-0.507-2.641-1.094
		c0,0-6.535,5.652-8.19,25.69c0,0,14.292,5.955,14.579,2.655C85.753,178.502,83.78,155.874,79.762,153.121z"/>
	<path fill-rule="evenodd" clip-rule="evenodd" fill="#0067A6" d="M75.688,136.639c0,0-27.782-11.025-42.112-4.089
		c0,0-3.707,1.702-7.014,5.799c0,0-1.593-4.557,5.099-8.751c6.819-4.276,18.311-2.277,25.076-1.648c0,0-13.197-9.08-28.855-0.586
		c0,0,0.63-8.963,23.212-7.48c17.825,0.923,19.019,2.133,21.795,9.276C73.887,131.835,75.688,136.639,75.688,136.639z"/>
	<path fill-rule="evenodd" clip-rule="evenodd" fill="#008457" d="M37.511,144.849c0,0,3.95,4.446,6.464,9.823
		c4.995,10.678,4.747,14.888,4.747,14.888s11.064,4.438,14.132,5.712C62.854,175.271,58.832,148.332,37.511,144.849z"/>
	<path fill-rule="evenodd" clip-rule="evenodd" fill="#FFFFFF" d="M35.108,146.622c0,0,10.006,12.398,9.686,23.544
		c0,0-2.19,0.24-3.783,1.34c0,0-2.078-6.186-2.978-8.11c-4.135-8.854-6.615-14.058-6.615-14.058S33.737,147.154,35.108,146.622z"/>
	<path fill-rule="evenodd" clip-rule="evenodd" fill="#0067A6" d="M82.862,186.867c0,0,1.18,2.063-3.187,8.713
		c-3.955,5.293-8.735,11.446-14.41,11.343c-3.825-0.688-8.856,0.34-3.427-6.515c11.506-14.57,8.089-17.387,11.579-16.979
		C73.417,183.429,82.507,185.589,82.862,186.867z"/>
	<path fill-rule="evenodd" clip-rule="evenodd" fill="#0067A6" d="M59.253,178.215c3.059,0.563,8.035,2.685,8.279,5.408
		c0,0-0.07,3.32-4.483,10.193c-5.429,7.229-7.664,11.933-11.908,9.916c-4.152-1.972-6.844-1.198-3.919-5.727
		c2.604-4.033,7.811-10.502,8.947-17.283C56.207,179.086,57.728,177.934,59.253,178.215z"/>
	<path fill-rule="evenodd" clip-rule="evenodd" fill="#0067A6" d="M52.876,178.484c0.816,4.016-7.148,17.159-10.346,19.219
		c-3.198,2.062-14.011-0.135-8.764-5.261c8.444-8.562,8.152-13.946,10.039-16.073C46.145,173.43,52.06,174.468,52.876,178.484z"/>
	<path fill-rule="evenodd" clip-rule="evenodd" fill="#FFFFFF" d="M26.829,184.139l-0.932,2.453c-0.397,1.1,2.818,4.384,3.063,4.64
		c0.892,0.932,2.566-0.326,5.275-3.681c5.501-6.812,5.3-9.702,8.345-13.923c0,0-2.517,0.16-3.058,1.128
		C31.705,188.771,27.927,180.962,26.829,184.139z"/>
	<path fill-rule="evenodd" clip-rule="evenodd" fill="#008457" d="M43.451,132.364c12.02-1.252,30.193,6.951,36.004,7.995
		c0.097,0.017,0.185,0.043,0.276,0.066c-0.001,0-0.008,0-0.008,0c3.061,0.676,3.281,6.137,0.945,5.395
		c-16.215-5.149-31.219-6.928-31.219-6.928c11.72,0.425,24.99,6.505,29.704,8.576c1.562,0.687,2.333,1.297,2.049,2.132
		c-0.148,0.435-0.331,0.701-0.52,0.853c-2.344-1.1-25.741-10.056-35.838-9.691c-8.512,0.308-14.402,5.923-14.402,5.923
		c-1.55-2.743-1.704-4.404-1.704-4.404S32,133.56,43.451,132.364z"/>
	<path fill-rule="evenodd" clip-rule="evenodd" fill="#FFFFFF" d="M50.539,144.107c5.821,0.366,16.421,4.479,24.142,7.345
		c0,0-7.614,8.328-8.681,23.851c0,0-4.712-26.543-23.484-31.563C42.516,143.74,45.249,143.776,50.539,144.107z"/>
	<path fill="none" stroke="#000000" stroke-width="0.9998" stroke-miterlimit="22.9256" d="M50.539,144.107
		c5.821,0.366,16.421,4.479,24.142,7.345c0,0-7.614,8.328-8.681,23.851c0,0-4.712-26.543-23.484-31.563
		C42.516,143.74,45.249,143.776,50.539,144.107z"/>
	<path fill-rule="evenodd" clip-rule="evenodd" d="M233.823,314.363l1.595,2.64l11.301-6.828l2.158,3.572l-11.301,6.828l1.882,3.114
		l11.63-7.027l2.182,3.612l-15.89,9.601l-10.012-16.57l15.89-9.601l2.194,3.631L233.823,314.363z M215.575,323.683l5.205,14.192
		l-4.687,1.719l-5.206-14.192l-6.871,2.52l-1.461-3.983l18.458-6.771l1.461,3.984L215.575,323.683z M191.515,331.399l3.18,14.778
		l-4.881,1.051l-3.179-14.779l-7.155,1.539l-0.892-4.148l19.222-4.135l0.892,4.148L191.515,331.399z M159.087,336.039l0.169,3.08
		l13.184-0.723l0.229,4.167l-13.184,0.723l0.2,3.633l13.567-0.744l0.231,4.213l-18.538,1.018l-1.061-19.331l18.537-1.017
		l0.232,4.237L159.087,336.039z M137.534,343.853l-6.33-0.761l0.497-4.132l11.365,1.367l-0.484,4.021
		c-0.251,2.092-1.033,4.166-2.988,5.208c-2.01,1.076-5.089,0.892-7.278,0.628l-2.897-0.348c-2.189-0.263-5.224-0.815-6.921-2.335
		c-1.653-1.476-1.92-3.677-1.669-5.769l0.685-5.693c0.251-2.091,1.036-4.154,2.987-5.2c2.011-1.076,5.088-0.896,7.279-0.632
		l2.898,0.349c2.138,0.257,4.836,0.763,6.636,2.01c1.614,1.111,2.357,2.734,2.124,4.681l-0.231,1.924l-5.037-0.606l0.172-1.419
		c0.063-0.525,0.041-1.092-0.415-1.431c-0.79-0.582-2.952-0.884-3.904-0.999l-2.008-0.242c-0.974-0.117-2.193-0.269-3.172-0.208
		c-0.468,0.031-0.955,0.119-1.376,0.316c-0.222,0.107-0.39,0.252-0.504,0.471c-0.238,0.451-0.376,1.552-0.438,2.057l-0.575,4.781
		c-0.061,0.505-0.186,1.601-0.063,2.096c0.061,0.24,0.188,0.42,0.374,0.572c0.365,0.293,0.802,0.494,1.245,0.636
		c0.928,0.295,2.186,0.436,3.152,0.552l2.008,0.242c0.873,0.105,1.996,0.25,2.873,0.195c0.411-0.026,0.82-0.103,1.188-0.271
		c0.199-0.095,0.332-0.22,0.434-0.409C137.354,345.135,137.471,344.349,137.534,343.853z M104.698,337.643l4.387-12.145l4.681,1.691
		l-6.577,18.208l-5.381-1.944l-5.633-15.783l-4.393,12.163l-4.681-1.691l6.577-18.208l5.38,1.943L104.698,337.643z M70.11,329.863
		l8.747-17.271l4.468,2.263l-8.747,17.271L70.11,329.863z M55.572,302.314l-2.531,3.502l4.952,3.579
		c0.517,0.374,2.114,1.491,2.752,1.553c0.303,0.028,0.551-0.28,0.708-0.498l1.158-1.603c0.14-0.194,0.388-0.569,0.275-0.83
		c-0.234-0.547-1.881-1.777-2.363-2.125L55.572,302.314z M62.706,315.414c0.019,0.099,0.034,0.198,0.043,0.298
		c0.113,1.146-0.417,2.234-1.071,3.14l-3.099,4.289l-4.137-2.99l2.758-3.817c0.192-0.266,0.713-1.058,0.616-1.422
		c-0.127-0.487-1.244-1.349-1.628-1.626l-5.614-4.058l-3.859,5.339l-4.034-2.916l11.341-15.69l9.4,6.794
		c1.435,1.037,3.485,2.647,4.227,4.301c0.7,1.574,0.266,3.165-0.71,4.516l-1.497,2.071c-0.643,0.889-1.498,1.557-2.596,1.75
		C62.801,315.4,62.753,315.408,62.706,315.414z"/>
	<path d="M237.796,328.194l-8.746-14.474l13.795-8.335l0.928,1.536l-11.63,7.027l2.861,4.735l11.301-6.828l0.892,1.476
		l-11.301,6.828l3.148,5.21l11.63-7.027l0.916,1.516L237.796,328.194z M204.745,326.351l-0.619-1.685l16.161-5.927l0.618,1.686
		l-6.9,2.531l5.205,14.192l-2.389,0.876l-5.205-14.192L204.745,326.351z M180.418,332.534l-0.377-1.755l16.828-3.62l0.377,1.755
		l-7.186,1.546l3.18,14.778l-2.488,0.536l-3.179-14.779L180.418,332.534z M156.101,350.116l-0.926-16.887l16.093-0.883l0.099,1.792
		l-13.568,0.745l0.303,5.524l13.184-0.724l0.095,1.723l-13.184,0.724l0.334,6.078l13.568-0.745l0.097,1.769L156.101,350.116z
		 M122.729,336.185c0.258-2.145,1.039-3.565,2.349-4.267c1.305-0.698,3.489-0.865,6.555-0.496l2.898,0.349
		c2.809,0.338,4.838,0.937,6.087,1.802c1.25,0.861,1.782,2.038,1.603,3.528l-0.085,0.708l-2.605-0.314l0.025-0.204
		c0.138-1.154-0.162-2.01-0.902-2.561c-0.746-0.55-2.241-0.961-4.485-1.23l-2.009-0.242c-1.564-0.188-2.697-0.258-3.397-0.213
		c-0.695,0.045-1.307,0.19-1.825,0.433c-0.468,0.225-0.826,0.561-1.06,1.005s-0.424,1.269-0.569,2.481l-0.575,4.781
		c-0.145,1.205-0.156,2.051-0.034,2.538s0.39,0.898,0.791,1.228c0.445,0.358,0.995,0.643,1.644,0.851
		c0.65,0.207,1.772,0.407,3.377,0.601l2.009,0.242c1.449,0.174,2.481,0.24,3.096,0.201c0.621-0.039,1.161-0.169,1.633-0.385
		c0.438-0.209,0.769-0.525,0.995-0.947c0.221-0.422,0.396-1.174,0.525-2.249l0.125-1.04l-6.33-0.761l0.205-1.701l8.935,1.075
		l-0.338,2.806c-0.259,2.152-1.04,3.577-2.35,4.275c-1.304,0.698-3.489,0.861-6.555,0.492l-2.898-0.349
		c-3.065-0.369-5.149-1.045-6.251-2.033c-1.107-0.988-1.528-2.558-1.27-4.709L122.729,336.185z M88.667,337.407l5.746-15.906
		l3.687,1.332l6.592,18.429l5.128-14.196l2.378,0.859l-5.745,15.906l-3.687-1.332l-6.584-18.45l-5.135,14.218L88.667,337.407z
		 M71.755,329.324l7.641-15.087l2.284,1.157L74.04,330.48L71.755,329.324z M44.392,311.375l9.907-13.706l8.408,6.077
		c2.092,1.513,3.365,2.782,3.826,3.809c0.458,1.029,0.263,2.127-0.584,3.3l-1.496,2.07c-0.521,0.72-1.124,1.14-1.816,1.262
		s-1.479-0.06-2.365-0.542c0.772,0.793,1.194,1.523,1.26,2.188c0.065,0.665-0.216,1.432-0.845,2.302l-2.382,3.296l-2.152-1.556
		l2.042-2.824c0.711-0.984,0.981-1.798,0.808-2.449c-0.17-0.655-0.87-1.423-2.095-2.309l-6.606-4.775l-3.859,5.339L44.392,311.375z
		 M61.241,304.901l-5.944-4.296l-3.965,5.486l5.944,4.296c1.55,1.121,2.668,1.713,3.355,1.779c0.683,0.063,1.288-0.271,1.814-1
		l1.158-1.603c0.536-0.741,0.673-1.417,0.408-2.03C63.75,306.926,62.825,306.046,61.241,304.901z"/>
</g>
</svg>
